<?xml version="1.0" encoding="utf-8"?>
<!-- Generator: Adobe Illustrator 23.0.1, SVG Export Plug-In . SVG Version: 6.00 Build 0)  -->
<svg version="1.1" id="Layer_1" xmlns="http://www.w3.org/2000/svg" xmlns:xlink="http://www.w3.org/1999/xlink" x="0px" y="0px"
	 viewBox="0 0 288 288" style="enable-background:new 0 0 288 288;" xml:space="preserve">
<style type="text/css">
	.st0{fill-rule:evenodd;clip-rule:evenodd;fill:url(#SVGID_1_);}
	.st1{fill:#B4005B;}
	.st2{fill:#5135FF;}
	.st3{fill:#F2FF4A;}
	.st4{fill:#FF4F0A;}
	.st5{fill:#005F12;}
</style>
<g id="New_Symbol_6">
</g>
<g>
	<linearGradient id="SVGID_1_" gradientUnits="userSpaceOnUse" x1="144" y1="-43.0868" x2="144" y2="291.2092">
		<stop  offset="0" style="stop-color:#FFFFFF"/>
		<stop  offset="0.3543" style="stop-color:#F5F6F7"/>
		<stop  offset="0.9633" style="stop-color:#D9DEE1"/>
		<stop  offset="1" style="stop-color:#D7DCE0"/>
	</linearGradient>
	<rect x="0" class="st0" width="288" height="288"/>
	<path d="M33.7,106.5c0.5,0,0.6,0.2,1.1,0c0.5-0.2,1.8-1.1,2.3-1.2c0.5-0.1,0.8,0,0.1,0.4c-0.7,0.4-2.1,1.2-1.8,1.1
		c0.2-0.1,0.9-0.4,1.9-0.8c1-0.5,0.9-0.3,1.2-0.8c0.3-0.5,0.4-0.8,0.4-0.8s1.6,1.6,1.7,1.7c0.1,0.1,0.2,0,0.3-0.2
		c0.1-0.2,0.2-0.5,0.5-0.4c0.2,0.1,0,0.5,0.2,0.5c0.1,0.1,0.4,0,0.8-0.1c0.4-0.1,0.2-0.4,0.2-0.4s0,0,0.4-0.1c0.5,0,2,0.5,2.4,0.7
		c0.4,0.2,1.8,0.3,2.2,0.4c0.4,0.1,0.5-0.2,1,0.1c0.5,0.3,0.9,0.7,0.5,0.8c-0.4,0.2-1.4,0.3-0.9,0.5c0.5,0.1,1.3,0.3,2,0.3
		c0.7,0,2-0.3,2.4-0.3c0.4,0,0.6,0.2,1,0.9c0.4,0.6,0.7,0.9,0.8,0.9c0.1,0.1-0.1-0.3-0.1-0.6c0.1-0.3-0.1-0.9-0.2-1.1
		c-0.1-0.2,0-0.3-0.2-0.6c-0.2-0.3-0.5-0.2,0.1-0.5c0.5-0.3,0.9-0.6,1.5-0.6c0.6,0.1,0.8,0.9,1.4,1c0.6,0.1,0.7,0.3,1.6,0.4
		c1,0.1,0.6,0,1.6,0.1c1.1,0.1,0.7-0.1,0.9-0.7c0.2-0.5,0.5-0.7,0.7-0.6c0.3,0,1.2,0.1,1.2,0.3c0,0.1-0.4,0.7-0.2,1
		c0.2,0.3,1,0.8,1,0.8s-0.2-0.7-0.2-0.7c0-0.1-0.1-0.6,0.1-0.7c0.1-0.1,0.7,0.1,1.1-0.7c0.4-0.8-0.3-0.7-0.3-0.7s-0.2,0-0.1-0.3
		c0.1-0.3,0.8-0.5,0.8-0.5s0,0.1,0-0.1c-0.1-0.3-0.6-0.2-1.1-0.2c-0.5,0-0.8-0.1-0.9-0.5c-0.1-0.4-0.1-1.3-0.1-1.9
		c0-0.6,0.5-0.4,0.6-0.7c0.1-0.3,0-2-0.1-2.3c-0.1-0.3,0.2-1.1,0.2-1.6c0.1-0.5,0.6-0.3,0.6-0.3c-0.1-0.2,0.1-0.6,0.8-0.8
		c0.7-0.2,1.9,0,1.9,0s-0.1,0-0.4,0.4c-0.3,0.4-0.1,1.1-0.6,1.6c-0.5,0.5-1.7,0.3-1.7,0.3s0.4,0.8,0.2,1.1c-0.2,0.3-0.3,0.8-0.3,0.8
		s1,0.3,1.1,1c0.1,0.7,0.6,0.8,0.7,1.4c0.1,0.6-0.5,1.1-0.4,1.2c0.1,0.1,0.2,0.1,0.6,0.2c0.4,0,0.9,0.1,0.9,0.1s-0.2,0.3,0,0.6
		c0.2,0.3,0,0.5,0.1,0.9c0,0.4,0.2,0.7,0.3,0.6c0.1-0.1,0.5-1,0.6-1.4c0.1-0.4,0.2-0.6,0.3-0.6c0.2,0,0.8,0.5,0.8,0.7
		c0.1,0.2,0.1,0.5-0.2,1c-0.3,0.5-0.3,0.8,0,1c0.3,0.2,0.3,0.1,0.8,0.4c0.5,0.2,0.4,0.2,0.7,0.1c0.3-0.1-0.1-0.9-0.1-0.9
		c0,0,0.8-0.1,0.6-0.5c-0.2-0.4-0.3-0.6,0-0.8c0.3-0.2,0.6-0.4,0.6-0.4c-0.1-0.3-0.2-0.3-0.4-1c-0.2-0.7,0.2-0.5,1.2-0.4
		c1,0.1,1,0.4,1.5,0.7c0.5,0.3,0.2,0.4,0.4,0.8c0.2,0.4-0.4,0.5-0.4,0.5s-0.4,0.1-0.3,0.4c0.1,0.3,0.3,0.7,0.5,1.2
		c0.3,0.5-0.1,0.8-0.5,1.2c-0.4,0.4-0.9,0.5-1.5,0.5c-0.5,0-0.7,0.2-0.8,0.1c0-0.1-0.3-0.3-0.6-0.2c-0.3,0.1-0.9,0.3-0.7,0.4
		c0.2,0.1,0.8,0.1,0.6,0.5c-0.2,0.5-0.5,0.5-0.9,0.4c-0.5-0.1-0.9-0.1-1.3-0.1c-0.3,0-1.8-0.1-1.8-0.1s1,0.6,1.9,0.9
		c0.8,0.3,1.7,0.1,1.7,0.1s-0.3,0.6-0.7,1.3c-0.4,0.7-0.8,0.4-1.1,0.4c-0.3,0-0.5,0.3-1.2,0.4c-0.6,0.1-1.9-0.2-1.7-0.1
		c0.2,0.1,0.3,0.3,0.6,0.3c0.4,0.1,0.6,0.1,0.9,0.4c0.3,0.3-0.2,0.3-0.6,0.4c-0.4,0.1-0.5,0.1-0.7,0.4c-0.2,0.3-0.9,1.3-1.1,1.6
		c-0.2,0.3-0.4,0.8-0.5,1.4c-0.1,0.6-0.6,1.3-0.4,1.5c0.2,0.2,1.1,0.2,1.5,0.4c0.4,0.2,0.8,1.3,1.1,1.8c0.3,0.4,0.5,0.7,0.8,0.4
		c0.3-0.3,0.9-0.2,1.5,0c0.6,0.2,1.8,1,2.1,1.4c0.4,0.4,1,0.3,1.7,0.4c0.7,0.1,0.8,0.4,0.8,0.4s0.8,0,0.4,0.4
		c-0.3,0.3-0.4,0-0.1,0.5c0.3,0.5,0.3,1.3,0.2,1.6c-0.1,0.4,1,0.2,1.5,0.4c0.5,0.3,0.5,1.4,0.7,1.2c0.2-0.1,0.6-0.4,0.7-0.7
		c0-0.3,0-0.7-0.1-1.2c0-0.5-0.2-1.4-0.4-1.8c-0.2-0.4,0.4-0.5,0.3-0.7c-0.1-0.2-0.1-0.5,0.4-0.6c0.5-0.1,0.5,0,0.8-0.2
		c0.3-0.2,0.3-1.1,0.3-1.4c0-0.3-0.1-1-0.2-1.3c-0.1-0.3-0.6-1.1-0.7-1.3c-0.2-0.2-0.4-0.2,0.1-0.8c0.5-0.6,0.2-0.5,0.1-0.6
		c-0.1-0.2-0.2-0.6-0.3-1c-0.1-0.4,0.2-0.8,0-1.4c-0.2-0.6-0.3-0.4-0.3-0.6c0-0.1,1.1-0.1,1.9,0c0.8,0.1,1.1-0.1,1.3-0.1
		s0.6,0.2,1.1,0.5c0.4,0.3,0.6,0.2,0.8,0.5c0.2,0.3,0.3,0.5,0.8,0.5c0.5,0,0.9,0.2,0.9,0.2s-0.3,0.2-0.3,0.8
		c0.1,0.6-0.1,1.1-0.1,1.3c0,0.2,0.1,0.3,0.3,0.3c0.2,0,0.8,0.5,1.4,0.7c0.6,0.2,0.7,0.1,0.9-0.3c0.2-0.5,0.2-0.4,0.5-0.5
		c0.2,0,0.3,0.1,0.4-0.1c0.1-0.1-0.2-0.3-0.1-0.6c0.1-0.3,0.4-0.8,0.7-1c0.3-0.2,0.5,0.2,0.7,0.7c0.2,0.5,1,1.9,1.3,2.4
		c0.2,0.5,0.5,0.5,0.3,1c-0.3,0.5-0.4,0.7,0,0.9c0.4,0.2,0.8,0.6,0.8,0.9c0,0.3-0.1,0.4,0,0.4c0.1,0.1,0.7-0.2,1,0
		c0.4,0.2,0.8,0.3,1.1,0.6c0.3,0.3,0.2,0.4-0.1,0.5c-0.4,0.1-0.8,0.3-0.9,0.4c-0.2,0.1-0.5,0.3-0.5,0.5c0,0.2-0.1,0.5,0.2,0.2
		c0.3-0.2,0.8-0.5,1.1-0.6c0.4-0.1,0.1,0,0.4-0.1c0.3,0,0.6,0.2,1.1,0.3c0.4,0.1,0.3,0.4,0.2,0.7c-0.1,0.3-0.2,0.5,0,0.8
		c0.2,0.3-0.1,0.5-0.5,0.9c-0.4,0.4-0.7,0.4-1.3,0.5c-0.6,0.1-0.9,0.5-1.4,0.9c-0.4,0.4-0.7,0.3-1.3,0.3c-0.6,0-0.4-0.3-0.6-0.2
		c-0.2,0.1-0.5,0.3-0.9,0.3c-0.4,0-1.8,0.1-2.3,0.2c-0.5,0.2-0.4,0.5-0.5,0.8c-0.1,0.3-0.3,0.2-0.7,0.3c-0.4,0.1-0.9,0.7-1.3,1.5
		c-0.5,0.8-1.1,1.3-1.1,1.3c0.1,0,0.8-0.4,1.1-0.8c0.3-0.4,1.7-1.3,2.1-1.6c0.4-0.3,1.3-0.7,1.5-0.7c0.2,0.1,0.7,0.5,0.7,0.7
		c0,0.2-0.2,0.4-0.5,0.7c-0.4,0.4-0.9,0-0.8,0.1c0,0.1,0.3,0.5,0.6,0.5c0.3,0.1,0.3,0.4,0.3,0.6c0,0.2-0.2,0.4,0.5,1
		c0.7,0.6,1.1,0.6,1.6,0.6c0.5,0,0.2,0.2,0.4,0.1c0.2,0,0.2-0.4,0.3-0.7c0.1-0.3,0.2-0.6,0.4-0.7c0.2-0.1,0.3-0.4,0.4,0.1
		c0.1,0.5-0.2,1.1-0.5,1.3c-0.3,0.1-0.2,0.3-0.2,0.5c0,0.1-0.3,0.2-1,0.5c-0.7,0.4-0.9,0.5-1,0.4c-0.1-0.1-0.4,0.1-0.7,0.4
		c-0.3,0.3-0.7,0.7-0.9,0.7c-0.2,0-0.5-0.1-0.1-0.5c0.3-0.3,0.4-0.8,0.8-1c0.3-0.2,0.5-0.1,0.8-0.1c0.3,0,0.1-0.2,0.4-0.3
		c0.2-0.2-0.2-0.1-0.5-0.2c-0.4-0.1-0.1-0.4-0.1-0.4l-0.4,0.2c0,0-0.6,0.3-0.7,0.3c-0.2,0-0.1,0.1-0.2,0.2c0,0.1-0.6,0.1-0.6,0.1
		s-0.3,0.6-0.7,0.7c-0.4,0.1-0.1,0.1-0.4,0.2c-0.3,0.1-0.3-0.2-0.3-0.1c-0.1,0.1-0.1,0.2-0.5,0.4c-0.3,0.3-0.5,0.3-0.8,1.3
		c-0.2,0.9,0,1.3,0,1.4c0,0.1-0.4-0.1-0.6,0c-0.1,0.1-0.4,0.5-0.8,0.6c-0.4,0.1-1.1,0.3-1.3,0.5c-0.2,0.2-0.2,0.4-0.3,0.8
		c-0.1,0.4-0.5,1.2-0.5,1.2s0.1-0.3-0.2-0.6C79,141.3,79,141,79,141s-0.1,0.3,0,0.7c0.1,0.4,0.3,0.7,0.2,1.1c-0.1,0.4-0.3,0.9-0.5,1
		c-0.2,0.1,0.1-0.3,0.1-0.6c0-0.3-0.2-0.3-0.3-0.5c-0.1-0.2-0.1-0.5,0.1-1.1c0.2-0.5-0.2-0.2-0.4,0.1c-0.2,0.4-0.3,1,0,1.4
		c0.3,0.4-0.2,0.4,0,1c0.2,0.6-0.3,0.9-0.2,1c0.1,0.1,0.3,0,0.4,0.3s-0.2,0.2-0.3,0.2c-0.1,0.1-0.1,0.2,0,0.4
		c0.1,0.2,0.2,0.1,0.1,0.1c-0.1,0.1-0.2,0.3-0.5,0.4c-0.3,0.1-0.3-0.1-0.5,0.2c-0.2,0.2-0.3,0.4-0.5,0.6c-0.2,0.2-0.3,0.2-0.5,0.3
		c-0.2,0.2-0.3,0.3-0.5,0.5c-0.2,0.2-0.8,0.5-1.1,0.9c-0.3,0.4-0.2,0.5-0.4,1.2c-0.1,0.7,0.4,1.8,0.7,2.9c0.3,1.1,0.5,0.8,0.4,1.1
		c0,0.3-0.2,0.8-0.4,1c-0.2,0.2-0.4-0.2-0.7-0.4c-0.3-0.2-0.1-0.4-0.4-0.9c-0.3-0.5-0.3-0.7-0.3-1c0-0.4-0.1-0.9-0.3-1.3
		c-0.2-0.4-0.5-0.9-1.1-0.7c-0.5,0.2-0.4,0.1-0.7,0c-0.3-0.1-1.1-0.4-1.4-0.2c-0.4,0.2-1.6-0.1-1.9,0c-0.3,0.1-0.4,0.1-0.4,0.3
		c0,0.2-0.1,0.2,0.3,0.3c0.5,0.1,0.4,0.3,0.4,0.5c0,0.2-0.4-0.1-0.5-0.2c-0.2-0.1-0.3,0.1-0.7,0.1c-0.3,0-0.4-0.3-0.6-0.3
		c-0.3,0-0.4,0-0.7-0.1c-0.3-0.1-0.6-0.3-0.9-0.3c-0.3,0-1.5,0.8-2.1,1.2c-0.6,0.4-1,0.8-1.1,1.2c-0.1,0.3-0.1,0.4,0.3,0.9
		c0.5,0.5,0.2,0.4,0.2,0.7c-0.1,0.3-0.4,0.6-0.7,1.4c-0.3,0.7-0.1,1.1,0.3,1.8c0.4,0.7,0.7,1.2,1,1.5c0.3,0.3,0.5,0.6,0.8,0.7
		c0.3,0.1,0.3,0.2,0.4,0.3c0.1,0.1,0.1,0.2,0.5,0.1c0.4-0.1,0.7-0.3,1-0.3c0.3,0,0.6,0,0.7,0.2c0.2,0.2,0.2,0.1,0.2,0
		c0-0.1,0.1-0.4,0.2-0.5c0-0.1,0.4-0.7,0.5-1c0.1-0.3,0.1-0.9,0.5-1c0.4,0,1.2-0.2,2-0.2c0.8,0.1,0.4,0.4,0.2,0.8
		c-0.2,0.4-0.3,0.4-0.3,0.7c0,0.3,0.1,0.3-0.2,0.5c-0.2,0.2-0.1-0.1-0.2,0.1s-0.5,0.4-0.4,0.4c0,0,0.2,0.3,0.2,0.5s0,0.2,0,0.7
		c0,0.4-0.8,0.8-0.8,0.8s0.3,0.2,0.7,0.2c0.4,0,0.9,0,1.4,0.2c0.4,0.2,1.3-0.2,1.9,0.1c0.6,0.3,0.4,0.5,0.4,0.8
		c0,0.3,0.1,1.3,0.1,1.5c0,0.2-0.3,0.9-0.5,1.3c-0.2,0.5,0.4,0.8,1,1.2c0.6,0.4,1,0.5,1.3,0.6c0.3,0.1,0.8-0.4,1.8-0.4
		c1,0.1,1.3,0.9,1.3,0.9s0.1-0.5,0.6-1.2c0.4-0.7,0.5-0.9,1.1-1.1c0.6-0.2,0.8-0.3,1.8-0.6c1-0.3,0.8-0.1,1.3,0
		c0.5,0,1.7,0.1,2.9,0.5c1.2,0.4,3,0.5,3.7,0.7c0.7,0.3,1,1.1,1.7,1.8c0.7,0.7,1.6,1.3,2,1.6c0.4,0.3,2.5,0.6,3,0.8
		c0.5,0.2,1.1,1,1.2,1.4c0,0.5,0.5,0.7,1.2,1c0.6,0.3,0.8,0.6,1.3,1.4c0.4,0.8,0.3,1.1,0.9,1.3c0.6,0.2,4.6,1.3,5.6,1.7
		c1,0.4,2.3,1.4,2.6,1.6c0.3,0.1,0.9-0.1,1.2,0c0.3,0.1-0.2,0.9,0.2,1.5c0.3,0.6,0.4,0.6,0.2,1c-0.2,0.4-1,1.4-1.3,1.9
		c-0.3,0.5-1,0.8-1.4,1c-0.4,0.2-0.7,0-0.4,0.4c0.3,0.4,0,0.8-0.3,1.1c-0.3,0.4,0,0.3-0.1,1.5c-0.1,1.2,0,2.5-0.1,3
		c-0.1,0.5-0.9-0.5-1.8,0.7c-0.9,1.1-1.1,2-1.7,2.1c-0.5,0.1-1.8,0.7-2.2,1.1c-0.4,0.4-0.5,0.5-0.8,1.1c-0.3,0.6-0.5,1.8-0.8,2.5
		c-0.3,0.7-0.8,1.1-1.8,2.1c-1.1,1-1.5,2-2.2,2.7c-0.7,0.8-0.5,0.6-0.7,0.7c-0.4,0.4-1.9-0.6-1.5-0.1c0.3,0.4-0.2,0,0.1,0.4
		c0.2,0.4,0.4,0.5-0.1,1.2c-0.5,0.7-1.1,0.5-1.6,0.6c-0.4,0.1-1.1-0.4-1.1-0.2c0,0.3-0.3,0.9-0.6,1.1c-0.3,0.2-1.2,0.4-1.2,0.5
		c0.4,2,1.3,2.2,0.4,2.1c-2.5-0.2-0.7-0.8-2.5,2.8c-0.3,0.6-0.5,0.3-0.5,0.9c0,0.7,0,1.2,0.4,1.6c0.4,0.4,0.1,0.4-0.5,1
		c-0.6,0.6-0.6,0.5-1.2,1.3c-0.6,0.8-1.1,0.8-0.9,1.4c0.2,0.6,0.2,1.6,0.6,2.5c0.3,1,1,0.8,2.1,1.4c1.1,0.7,1.2,0.3,1.8,0.5
		c0.5,0.2-0.4,0.2-1.3,0.4c-1,0.2-1.6,0.4-2.2,0.2c-0.7-0.1-2.2-1.1-2.8-1.4c-0.5-0.4-1.4-1.1-1.7-1.8c-0.3-0.7-0.5-1.4-0.9-2.3
		c-0.4-0.9-0.1-1.5,0.1-3.6c0.2-2,0.3-3.6,0.6-4.7c0.3-1.1,1.2-6,1.4-7.2c0.2-1.3,1.4-6.4,1.5-7.2c0.1-0.8,0.2-1.4,0.3-2.2
		c0.2-0.8,0.1-2.4,0.1-2.5c0-0.1-0.1-0.1-0.3-0.9c-0.2-0.8-0.6-1.1-1.2-1.4c-0.6-0.3-1.1-0.7-1.6-1.1c-0.4-0.3-1-0.7-1.4-1.3
		c-0.4-0.6-0.9-1.7-1.1-2.2c-0.2-0.5-1-2.1-1.8-3.2c-0.8-1.1-0.8-1.1-1.2-2.3c-0.4-1.2,0.3-1.2,0.5-1.9c0.1-0.7,0.6-1.3,1.1-2.3
		c0.5-0.9,1.1-1.2,1.5-2c0.4-0.8,0.1-0.8,0-1.6c-0.1-0.8,0-0.7-0.2-1.1c-0.2-0.4-0.4-1-0.6-1.1c-0.2-0.1-0.6-0.2-0.8,0
		c-0.2,0.2-0.6,0.9-0.8,0.9c-0.2,0-0.3-0.2-0.4-0.4c-0.1-0.1-0.8-0.1-0.9-0.3c-0.1-0.1-0.5-0.2-0.7-0.3c-0.2-0.1-1.1-0.6-1.3-0.8
		c-0.2-0.2-0.6-0.7-0.6-1.2c0-0.5-0.5-0.7-1.5-1.5c-1-0.7-1.5-0.8-2.8-1.2c-1.3-0.3-1.8-1.2-2.2-1.4c-0.4-0.2-0.4-0.5-1.3-0.4
		c-0.9,0.1-2.1-0.4-2.8-0.7c-0.7-0.3-2-0.5-2.5-0.8c-0.5-0.4-1.5-0.5-1.9-1.3c-0.4-0.8-0.3-0.5-0.2-1.3c0.2-0.7-0.9-1.4-1.6-2.1
		c-0.6-0.7-1.1-0.8-1.5-1.7c-0.3-0.9-0.8-0.8-1.5-1.4c-0.6-0.6-0.7-1.4-0.9-2.1c-0.3-0.7-2-1.7-2-1.7s0.5,1.2,0.7,1.7
		c0.2,0.5,0.7,1.6,1.2,2.5c0.5,0.8,1,1.1,1.5,1.9c0.5,0.8,0,1.4-0.2,1c-0.2-0.3-0.9-0.5-0.9-0.9c0-0.4-0.2-0.6-0.3-1
		c-0.2-0.3-0.8-0.7-1.5-1.2c-0.7-0.5-1.1-0.8-0.7-0.8c0.4,0,1,0.4,0.9,0.1c-0.1-0.2-0.9-1-1.2-1.6c-0.4-0.5-0.5-1.1-0.8-2
		c-0.4-0.9-1.7-1.8-2.3-1.8c-0.6-0.1-0.8-0.4-1-1c-0.2-0.7-0.3-1.4-0.6-1.9c-0.3-0.5-1.5-2.3-1.6-2.9c0-0.7-0.4-2.6,0.1-3.7
		c0.4-1.1,0.3-3.5,0.3-4c-0.1-0.5-0.9-1.4-0.9-1.7c0-0.4,0.5-0.1,0.8,0c0.4,0.1,1.1,0.4,1.1,0.4s-0.6-1.1-0.9-1.4
		c-0.4-0.4-1.4-0.8-1.9-1c-0.5-0.1-1.1-0.3-1.3-0.7c-0.2-0.4-0.5-0.9-0.7-1.2c-0.2-0.3-0.9-0.7-1.1-1.1c-0.2-0.4-0.1-1-0.4-1.4
		c-0.2-0.4-0.6-0.6-1-0.4c-0.4,0.1-0.5-0.2-0.8-0.7c-0.3-0.5-1-0.8-1.2-0.8c-0.2-0.1-0.9-1-0.9-1.2c0-0.2-1.1-1.4-1.5-1.7
		c-0.4-0.2-3.8-1.4-3.9-1.4c-0.1,0-1.1,0.1-1.4,0.1c-0.3-0.1-1.2-0.9-1.6-1c-0.5-0.2-0.8,0.2-1,0.7c-0.2,0.5-1.3,1.4-1.9,1.8
		c-0.6,0.4-1.1,0.4-1,0.2c0-0.2,0-0.5,0.2-1c0.2-0.5,0.3-0.6,0.9-1c0.6-0.3,0.6-0.3,0.4-0.3c-0.2,0-0.4,0,0.1-0.3
		c0.5-0.3,0.7-0.3,0.7-0.6c0-0.2-1.1,0.3-1.7,0.9c-0.7,0.5-1.1,0.9-1.6,1.9c-0.6,1,0.1,0.6-0.4,1.2c-0.5,0.6-2.2,1.9-2.6,2.4
		c-0.5,0.5-2.5,1.5-3.3,1.8c-0.8,0.2-1.2,0.4-1.6,0.7c-0.4,0.3-1.4,0.4-1.1,0.2c0.3-0.2,1-0.7,1.4-1c0.4-0.2,1.6-0.7,1.9-0.8
		c0.3-0.1,1.3-0.7,1.7-1.2c0.5-0.5,0.8-1.1,1.1-1.6c0.3-0.5,0.4-0.7-0.3-0.5c-0.6,0.2-1.3,0.1-1.6,0c-0.3-0.1-1.2,0.4-1.5,0.2
		c-0.3-0.2,0-0.7-0.2-0.9c-0.2-0.2-0.9-0.1-1.3-0.2c-0.4-0.1-1.1-0.4-1.1-1.1c0-0.6-0.4-1.2-0.2-1.6c0.2-0.5,0.6-0.6,1-0.9
		c0.4-0.3,1.5-0.6,1.7-0.6c0.2,0,0.5-0.2,0.7-0.4c0.2-0.2-0.5-1-0.5-1s0.1-0.1,0.4-0.2c0.3-0.2,0.1-0.5-0.4-0.5
		c-0.5,0.1-1.5,0.5-2.1,0.7c-0.6,0.2-1.5,0.1-1.4-0.2c0-0.3,0.2-0.4-0.1-0.6c-0.2-0.2-0.4-0.4-0.2-0.5c0.2-0.1,1.6-0.9,1.6-0.9
		s0.5,0.5,1,0.6c0.5,0.1,1.7-0.9,1.7-0.9c-0.7-0.4-0.6-0.6-0.6-0.6s-1.2,0-1.4-0.2c-0.3-0.2-0.4-0.5-0.4-0.8c-0.1-0.3-1.2-0.5-0.9-1
		c0.3-0.5,0.9-0.6,1.3-1.1c0.4-0.5,0.7-1.4,1.8-1.9c1.1-0.5,2.4-1,3-1.4c0.6-0.4,0.8,0,1.1,0c0.2,0.1,1.6-0.1,2.1-0.1
		c0.5,0,0.6,0.6,0.8,0.7c0.2,0.1,4.9,0.3,4.9,0.3s4,0.1,4.8,0.3c0.8,0.2,2.2,0.8,2.2,0.8C33.3,107.6,33.2,106.5,33.7,106.5z
		 M87.2,82.5c0,0-0.4,1.7-2,2.1c-1.6,0.5-4.5,1.7-4.7,1.8c-0.1,0.1,0.2,1,0.6,1.4c0.4,0.5,0.8,0.8,1.1,1.2c0.4,0.5,1,0.4,1.5,0.9
		c0.5,0.5,0.8,0.3,2.2,0.3c1.3,0,1,0.1,2.5,0.2c1.5,0.1,3,0.2,3.6,0.7c0.5,0.5,1.2,2.2,1.7,3.3c0.5,1.1,1.3,2.9,1.3,3
		c0,0.2-0.5,1.5-0.5,1.7c0,0.2,0.3,0.6,0.5,0.8c0.2,0.3,0.1,0.5,0.1,0.8c0,0.3,0.3,1,0.3,1c0,0.1,0.7-0.7,1.1-0.8
		c0.4-0.1,1.5,0.7,1.5,1.3c0,1.4,0.4,0.9-1.8,2.5c-0.3,0.2-0.6,1.8-0.4,2.6c0.2,0.8,0.8,1.7,1.2,2.8c0.4,1.1,1.7,2.7,2.1,3.4
		c0.4,0.7,0.5,1.7,1.4,1.9c0.9,0.2,1.7,0.5,2.4,0.7c0.6,0.1,1.1,0.4,1.4-0.2c0.3-0.6,0.9-2.9,1.4-4.5c0.5-1.7,0-2.2,1.2-2.5
		c1.2-0.4,3.1-1.1,3.6-1.3c0.5-0.2,0.4-1.9,1.6-2.4c1.1-0.5,1.3-0.5,2.4-0.8c1.1-0.4,2.7-1.1,3.8-1.8c1.1-0.8,1.4-0.4,1.8-1.1
		c0.4-0.7-0.4-1.8-0.5-2.9c-0.1-1.1,0.4-1.1,0.6-2.1c0.2-1,0.3-1.6,1.2-2.3c0.9-0.7,1.3-1,1.2-1.7c-0.2-0.6-0.6-1.6-0.6-2.2
		c0-0.7,0.2-0.3-0.2-1.2c-0.4-1-0.4-1.1,0-2c0.3-0.9,1.2-0.7,1.2-1.1c-0.1-0.4-1.4-1-1.4-2.1c0-1.1,0.2-1.4,0.5-1.7
		c0.2-0.3,2.5-2.1,2.6-2.2c0.2-0.2,0-0.6,1.1-1.2c1.1-0.5,1.5-0.9,1.9-1.1c0.4-0.2,1.1-0.1-0.2-0.5c-1.3-0.4-1.6-0.5-2.4-0.4
		c-0.8,0.1-1.1,0.6-2.6,0.7c-1.5,0.1-3.2,0.8-3.2,0.8s0.5-0.5,0.1-0.9c-0.4-0.4,1.2-1.9,1.4-2c0.3-0.2-2.1-0.7-3.3-1
		c-1.2-0.2-3.6-1-5-0.8c-1.4,0.1-3.4,0.1-4.1,0.3c-0.7,0.2-0.6,1.1-1.4,1.2c-0.8,0-2.2-0.5-3.3-0.3s-2.9,0.9-3.1,1
		c-0.2,0,0.7,0.6,1.3,0.7c0.6,0.1,1.3,1.3,1.3,1.3s-1.6-0.5-3.1-1c-1.6-0.4-3.4,0-4.1,0.2c-0.6,0.2-1.5,0.5-2.8,0.6
		c-1.3,0.1-2.8,1.1-3.5,1.6c-0.7,0.5-3,1.8-3.6,2.1c-0.6,0.3-0.4,0.5,0.3,0.6C86.5,82.4,87.2,82.5,87.2,82.5z M54.2,99.6
		c0.2,0.8,0.2,1.8-0.2,1.4c-0.4-0.5-0.8-1.4-1.4-1c-0.7,0.4-1.4,0.3-1.3,0.2c0.1-0.1,0-0.5-0.4-0.6c-0.3-0.1-0.5,0.1-0.9,0.3
		c-0.4,0.2-1.5,0.5-1,0.1c0.5-0.4,0.3-0.6,0.1-1c-0.2-0.4-1.3,0.3-2,0.7c-0.6,0.4-1,1.1-1.4,1.6c-0.4,0.5-0.1,0.7,0.5,0.9
		c0.6,0.2,1.5,0.3,0.7,0.6c-0.8,0.3-1.3,0.5-0.9,0.7c0.4,0.2,1.1,0.3,1.7,0.2c0.7-0.1,1.2-0.3,2.3,0c1.1,0.3,1.7,0.3,1.7,0.3
		s-0.4,0.2-1.1,0.4c-0.7,0.1-2,0-2.7,0.1c-0.7,0.1-1.7,0.3-1.5,0.6c0.3,0.2,0.5,0.6,1.4,0.9c0.9,0.3,1.1,0,1.6,0.2
		c0.5,0.1,0.3,0.8,0.4,0.9c0.1,0.1,1.2-0.1,2.2-0.3c1-0.2,0.7-0.4,1.5-0.6c0.8-0.2,0.8-0.8,1.3-1c0.5-0.1,0.1,0.3,0.7,0.5
		c0.6,0.1,0.3,0.2,0.9,0.3c0.6,0.1,0.5,0.3,1.1,0.3c0.6,0,1.3-0.4,1.2-0.5c-0.1-0.1-0.2-0.2-0.1-0.5c0.1-0.3-0.6,0.1-0.8,0.2
		c-0.2,0.1-0.2-0.4,0.3-0.6c0.5-0.2,0.9,0,1.2,0c0.3,0,0-0.9-0.5-1c-0.5-0.1-0.8-0.5-1.6-0.9c-0.8-0.4-0.4-0.6-0.6-1.2
		c-0.2-0.6-0.7-2.3-1.2-2.6c-0.4-0.3-0.9-0.2-1.4-0.5C54.1,98.5,54.1,98.9,54.2,99.6z M41.9,98.5c0.2,0.6,0.2,0.2-0.2,0.8
		c-0.4,0.6-0.2,0.8-0.4,1.3c-0.3,0.5-1,1.1-0.8,1.4c0.2,0.3,0.9,0.5,1.2,0.7c0.3,0.2,0.6,0.7,1.1,0.5c0.5-0.2,0.7-0.3,1.1-0.5
		c0.4-0.2,0.7-0.4,0.7-0.9c0-0.5,0-0.7,0.1-0.7c0.1,0,0.4,0.3,0.5-0.1c0.1-0.3,0.3-0.7,0.6-1c0.3-0.2,1-0.5,1.3-0.8
		c0.3-0.3,0.9-0.6,1.1-0.9c0.2-0.2-0.3-0.4-0.6-0.6c-0.3-0.1-0.6-0.6-1.3-0.6c-0.7,0-1,0.5-1,0.3c0-0.2-0.4-0.3-0.7-0.4
		c-0.3-0.1-0.5-0.2-1.4-0.2c-0.8,0.1-1.2,0.2-1.9,0.3C41,97.5,41.7,97.9,41.9,98.5z M61.2,105.1c-0.1,0.1-0.5,0.2-0.7,0.5
		c-0.2,0.3,0.5,0.1,0.7,0.2c0.2,0.1,0.4,0.3,0.6,0.4c0.2,0.1,1.2,0.1,1.7-0.1c0.4-0.2,0.5-0.3,0.4-0.4c0-0.1-0.9-0.9-1.5-1.3
		c-0.6-0.3-0.6-0.3-0.8-0.3C61.5,104.3,61.3,104.9,61.2,105.1z M58.4,98.6c-0.4,0.2-0.7,0.4,0,0.8c0.7,0.3,0.9,0.6,1.4,0.9
		c0.5,0.3,0.7,1.1,1.6,0.7c1-0.4,1.3-0.8,1.5-1.2c0.1-0.4-0.1-0.5-0.4-0.8c-0.2-0.4-0.3-0.5-0.8-0.5c-0.5,0.1-0.7,0.1-0.7,0.1
		s0.3-0.4,0.9-0.7c0.5-0.3,0.1-0.4,0.3-0.7c0.3-0.2-0.6-0.4-1-0.3c-0.4,0.1-0.4,0-1-0.1c-0.6,0-1.6,0.6-1.6,0.8c0,0.2,0.5,0.1,1,0.4
		c0.4,0.2,0.6,0.2,0.1,0.9c-0.4,0.7-0.7-0.2-0.8-0.3C58.7,98.6,58.8,98.4,58.4,98.6z M55.6,97.3c-0.7,0.1-0.9,0.5-0.6,0.6
		c0.3,0.1,0.4-0.1,0.8,0.4c0.4,0.4,0.8,0.7,0.9,0C56.8,97.6,56.6,97.3,55.6,97.3z M44.9,92c-0.7,0.6-0.9,1.1-1.5,1.4
		c-0.6,0.4-0.4,0.7-0.3,0.9c0.2,0.2,0.8,0,1-0.2c0.3-0.1,0.5-0.5,0.7-0.3c0.2,0.2,0.8-0.7,1.1-1c0.3-0.3,0.7-0.6,0.8-0.6
		c0.1,0-0.3,0.4-0.1,0.6c0.1,0.3,0.7,0.3,1.1-0.2c0.5-0.5,0-1,0.4-1.3c0.4-0.4,0.7-0.3,0-0.7c-0.7-0.3-1.2,0-1.3,0.2
		C46.6,91.1,46.3,90.9,44.9,92z M49.4,92.9c-0.4,0-0.6,0.1-1.3,0.4c-0.7,0.3-1,1.1-1.2,1.5c-0.2,0.4,0.1,0.4,0.7,0.7
		c0.6,0.2,1.5-0.1,1.7-0.7c0.2-0.6,0.5,0.1,0.3,0.4c-0.1,0.3,0.4,0,0.7-0.1c0.3-0.1,1.1-0.2,1.1-0.2c0.1,0-0.7,0.5-1.3,0.8
		c-0.7,0.2-1.3,0.4-1.5,0.4c-0.2,0,0.2,0.3,1,0.5c0.8,0.2,1.3-0.5,2.5-0.9c1.2-0.4,1.1-0.5,1.5-0.4c0.4,0.1,0.8-0.2,1.3-0.3
		c0.5-0.1,0.7,0.1,0.9-0.6c0.2-0.7,0.6-1.4-0.1-1.4c-0.7,0-0.7,0-0.8,0.7c-0.1,0.8-0.1,0.3-0.1,0.3s-0.4-0.7-0.7-1
		c-0.3-0.3-0.5-0.9-0.8-1.2c-0.3-0.3-0.4,0.1-0.9,0.6c-0.5,0.5-0.1,0.7,0.4,0.9c0.5,0.2,0.8,0.8,0.6,0.9c-0.2,0.2-0.5,0-1.3,0.1
		c-0.8,0.1-0.8-0.3-1.1-0.4c-0.2-0.1,0.4-0.3-0.5-0.7C49.6,92.9,49.7,92.9,49.4,92.9z M46.7,93.7c0.1-0.2-1.1,0.7-1.3,1
		c-0.2,0.3,0.2,0.2,0.6,0.2C46.3,94.9,46.4,94.2,46.7,93.7z M49,91.8c-0.3,0.1-0.3,0.2,0.2,0.3c0.5,0.1,0.8-0.2,0.7-0.4
		C49.8,91.6,49.2,91.7,49,91.8z M51.5,89.2c-0.3,0.1-1.3,0.4-1.3,0.6c-0.1,0.2,0,0.5,0.2,0.8c0.1,0.3,0.2,0.3,1,0.1
		c0.8-0.2,1.4-0.6,1.1-0.7c-0.3-0.1-0.4-0.2-0.7-0.2c-0.2,0,0.2-0.2,0.8-0.3C53.1,89.2,53.3,88.9,51.5,89.2z M48.7,89.7
		c-0.2,0.1-0.3,0.1,0.2,0.3c0.5,0.2,1,0.2,0.9,0C49.8,89.8,49.4,89.3,48.7,89.7z M50.6,88.3c-0.5,0.2-0.6,0.5-0.7,0.6
		c-0.1,0.1,0.5-0.1,0.8-0.2c0.3-0.1,0.4,0.1,0.6-0.1c0.3-0.2,0.8,0,1.3-0.1c0.5-0.1,0.6-0.4,0.5-0.7C53.1,87.5,52,87.8,50.6,88.3z
		 M55.7,89.5c-0.1,0.1-0.1,0.3,0,0.5c0.1,0.3,0.1,0.2,0.4,0.3c0.3,0.1,0.5,0.3,0.6,0.4c0.1,0.1,0.1,0.1,0.2-0.2
		c0.1-0.2-0.1-0.2-0.3-0.5C56.2,89.7,56,89.4,55.7,89.5z M57.4,91.7c-0.4-0.1-0.6,0.1-0.7,0.2c-0.1,0.1,0.1,0.2,0.2,0.5
		c0.1,0.3,0,0.4,0.6,0.4c0.6,0,0.7-0.1,0.8-0.4C58.2,92.1,57.7,91.8,57.4,91.7z M59.5,92.4c-0.3-0.3-0.5-0.5-0.9-0.3
		c-0.4,0.1-0.1,0.3-0.1,0.4c0,0.1,0.4,0,0.4,0.2c0,0.2,0.1,0.3-0.4,0.4c-0.5,0-0.7,0-0.9,0.2c-0.2,0.2,0.4,0,0.6,0.2
		c0.2,0.2,0.5,0.3,1,0.2c0.5-0.1,1.2-0.2,1.2-0.2S60.2,93.8,60,94c-0.1,0.2-0.2,0.6,0.1,0.8c0.3,0.2,0.3-0.2,1-0.2
		c0.7,0,0.9-0.4,0.9-0.4s-0.2-0.2-0.1-0.5c0-0.4,0-0.4,0-0.4s0.3,0.2,0.4,0.3c0,0-0.1-0.2-0.2-0.6c-0.1-0.4,0-0.4-0.1-0.9
		c-0.1-0.5-0.1-0.6-0.6-0.6c-0.5,0-0.9,0.2-1.4,0.2c-0.4,0-0.6,0.1-0.3,0.2c0.3,0.2,0.4,0.4,0.5,0.6c0.2,0.2,0.1,0.6,0.1,0.6
		C60.3,92.9,59.5,92.4,59.5,92.4z M56.8,94.3C56.8,94.3,56.8,94.3,56.8,94.3c-0.3,0.1-0.3,0.4-0.3,0.5c0,0.2,0.3,0.1,0.8-0.1
		C57.8,94.6,57.5,94.1,56.8,94.3z M63.8,93.4c-0.4,0.2-0.7,0.5-1,0.8c-0.2,0.3,0,0.3,0.6,0.6c0.6,0.3,1.3,0.4,1.6,0
		C65.3,94.5,64.9,92.8,63.8,93.4z M66.7,91c-0.8,0.1-0.5,0.2-1.5-0.1c-0.9-0.3-2.1-0.3-2.4-0.3c-0.3,0-0.2,0.1,0.2,0.7
		c0.3,0.5,0.4,0.7,1.1,0.5c0.7-0.2,1.2-0.3,1.7,0.4c0.5,0.7,0.7,0.9,0.3,1.2c-0.4,0.3-0.2,0.7,0,1.2c0.2,0.5,0.8,0.5,1.5,0.5
		c0.7,0,5.5-0.1,6.2-0.2c0.7-0.1,1.4-0.8,1.8-1c0.4-0.3,0.6-0.7,0.1-1c-0.5-0.3-1.3-0.6-1.9-0.6c-0.6,0-1.1,0.3-2,0.4
		c-0.9,0.1-0.7,0.5-1.5,0.5c-0.8,0-0.4,0.4-1.4,0c-1-0.4-1.8-0.9-1.3-1c0.5-0.1,0.9-0.1,0.6-0.4C67.9,91.5,67.4,90.9,66.7,91z
		 M57.3,87.1c0.5,0.2,0.6,0.3,0.1,0.4c-0.5,0.1-1,0.5-0.4,0.5c0.5-0.1,1,0.1,1.7,0.2c0.7,0.1,0.6,0,1,0.4c0.3,0.4,0.6,0.4,1.1,0.3
		c0.5-0.1,0.5-0.1,0.2-0.5c-0.3-0.3-0.6-1-1.1-1.2c-0.4-0.2-0.8-0.6-1.2-0.6c-0.4,0-0.5,0.1-0.9-0.4c-0.4-0.5-0.7-0.3-1.2-0.1
		c-0.5,0.1-0.7,0.5-0.9,0.7C55.3,87.1,56.8,87,57.3,87.1z M63.7,82.1c-0.6,0.7-1,1.3-0.4,1.4c0.7,0.1,0.9-0.1,1,0.2
		c0,0.2-0.1,0.4-1.1,0.4s-0.7,0.2-0.1,0.9c0.5,0.6,0.6,0.4,1.4,0.4c0.8,0,1.1-0.3,1.8-0.1c0.7,0.2,0.9,0.4,0.3,0.5
		c-0.6,0.2-2.1,0.5-1.8,0.8c0.3,0.3,1.4,1.1,1.8,1.1c0.5,0.1,0.6-0.3,1.6-0.2c1,0.1,0.8,0.2,0.9-0.1c0.1-0.3,0.7-1,0.8-1.3
		c0.1-0.3,0.4-0.4,0.9-0.5c0.6-0.1,0.7-0.3,0.2-0.5c-0.5-0.2-1.1-0.3-1.1-0.4c0.1-0.1,0.4-0.6,0.2-0.8c-0.2-0.2-0.6-0.2-0.9-0.3
		c-0.3-0.1-0.6-0.6-1-0.9c-0.4-0.2-0.7-0.2-1.1-0.6c-0.4-0.3-1.2-1.2-2-1.1C64.5,81,64.3,81.3,63.7,82.1z M62.5,88.1
		c-0.2,0.1-0.8,0.1-0.4,0.5c0.4,0.3,0.3,0.4,0.8,0.2c0.5-0.2,1.3-0.7,1.3-0.8c0.1-0.1-0.5-0.4-0.9-0.5c-0.4-0.1-0.7-0.4-1.5-0.7
		C60.7,86.4,62.8,88,62.5,88.1z M89.7,77.4c-0.9-0.2-4.2-0.9-5.3-0.6c-1.1,0.3-1-0.6-2.5-0.4c-1.5,0.2-3.8,0.1-4.5,0.2
		c-0.7,0.1,0.4,0.4,0.7,0.7c0.4,0.2-1.8-0.3-3.5,0.2c-1.7,0.5-2.8,0.7-1,1.4c1.8,0.7,2,0.9,2,0.9s-2.3-0.4-3.3-0.8
		c-1-0.4-0.4-0.4-2.3,0.2c-1.8,0.5-3.6,0.8-3.5,1.4c0.1,0.6,1.5,1.3,2.4,1.5c0.9,0.2,2.8-0.3,3-0.3c0.1-0.1-0.7,0.7-0.7,0.7
		s0.9-0.2,2-0.5c1.1-0.3,1.9-0.6,2.9-0.9c1-0.4,1.2-0.5,1.2-0.5s-1.7,1.4-3,1.8c-1.2,0.5-2.8,0.8-3.5,0.8c-0.7,0-0.6,0.5,0.1,0.9
		c0.7,0.4,1.3,1.2,1.7,1.5c0.4,0.3,0.4,0.7,0.4,0.7s-1.2-0.9-2.4,0c-1.3,0.9-1.1,1.4-0.8,1.5c0.3,0.1,1.5,0.2,1.7,0.6
		c0.2,0.4,1.7-0.4,1.7-0.4s-0.7,0.9-1.5,0.9c-0.7,0-0.7-0.6-1.7-0.5c-1,0.1-1,0.4-0.5,0.7c0.4,0.4,0.8,0.5,0,0.8
		c-0.8,0.4-1.1,0.5-1.2,0.9c0,0.4,1,0.4,1.7,0.4c0.7,0,1.3-0.1,2.5-0.1c1.2,0,1-0.4,1.5-0.4c0.4,0,0.9,0.1,0.7,0.6
		c-0.2,0.4,0.2,0.2,1.5-0.3c1.3-0.5,0.7-1.2,0.6-1.4c-0.1-0.2-0.6-0.3-0.9-0.5c-0.3-0.1,0.9-1.4,0.7-1.8c-0.2-0.4,1.5-0.1,2.2-1
		c0.7-1,0.5-1.7-0.1-1.8c-0.5-0.2,1-0.1,1.5-0.3c0.5-0.3,1.5-0.6,1.9-1.1c0.4-0.5,0.6-0.7-0.4-0.6c-1,0.1,1.4-0.4,2.6-1.2
		c1.2-0.8,2.5-1.7,2.8-1.9c0.3-0.2,0.6-0.1-0.8,0c-1.4,0.1-3.1-0.1-2.1-0.2c0.9-0.1,3.6-0.4,4.4-1C89.4,77.5,89.7,77.4,89.7,77.4z
		 M73.1,96.5c-1.5-0.1-3.6-0.5-4.1,0.8c-0.4,1.3-1.1,4.1-1.2,4.6c-0.1,0.5,1.8,1.3,3.1,1.4c1.3,0.1,3.3,0.1,2.9-0.2
		c-0.4-0.3-0.1-0.5,1.1-0.4c1.2,0.1,1.3-0.2,1.3-0.5c0-0.2,0.2,0.3,1,0.7c0.8,0.4,1.5,1.7,2.3,2.4c0.7,0.7,2.4,1.7,2.1,2.2
		c-0.3,0.6,0.4,2.5-2.2,2.9c-2.5,0.4-2.7,0.1-2.7,0.7c0,0.6,0.1,0.8,1.2,0.8s2.4-0.8,2.9-0.2c0.5,0.6,1.1,0.8,1.5,1
		c0.4,0.1-0.5,0.4-0.7,0.5c-0.2,0.1,0.5,0.2,2,0.9c1.5,0.7,3.2,0.8,2.3,0.3c-0.9-0.5-1.3-1.4-1.7-1.7c-0.4-0.3,0-0.1,0.7,0.1
		c0.7,0.2,1.3,0.7,1.6,1c0.3,0.2,0.4-0.1,0.7-1c0.2-1-0.1-1-1.2-1.7c-1.2-0.8-1.5-1.4-1.6-1.9c-0.1-0.6,0.6-0.7,0.9-1
		c0.3-0.4,1.1,0.7,1.7,1.3c0.6,0.6,1,1.7,1.5,0.9c0.4-0.8,0.9-2.6,0.9-3c0-0.4-0.4,0-2.3-0.9c-1.9-0.9-2.9-1.3-3.1-1.3
		c-0.2,0,0.5-0.4,1.3-0.8c0.8-0.4,1.2-0.4-0.6-2c-1.8-1.7-2.3-2-3.4-2.2c-1.2-0.1-1.5-1.3-2.3-1.7c-0.8-0.4-2.8,0.5-3.3,0.6
		c-0.6,0.1-0.4,0.4-1.1-0.7C73.7,97.2,73.1,96.5,73.1,96.5z M74.5,96.5c-0.7,0.1,0.4,1.4,1.4,1.5c0.9,0.1,1.7-0.4,2-0.5
		C78,97.5,75.6,96.4,74.5,96.5z M71.1,110.2c-0.1,0.3-0.4,1.1-0.5,1.7c0,0.6-0.1,0.6-0.2,1c-0.1,0.4,0.4-0.1,0.7,0.5
		c0.3,0.5,0.2,0.7,0.7,0.1c0.6-0.6,1.2-0.8,2-0.6c0.8,0.2,1.4,0.4,1.1-0.1c-0.3-0.5-0.6-0.4-1.2-1.1c-0.5-0.6-0.9-0.8-1.6-1.1
		C71.5,110.3,71.4,109.5,71.1,110.2z M76.7,158.5c-0.2-0.5-0.6-1.3-2-1.5c-1.4-0.3-1.9,0.3-2.5,0.4c-0.5,0.2,0.5,0.3,1.2,0
		c0.7-0.3,1.2-0.1,1.3,0.1c0.1,0.1-0.2,0.2-0.3,0.1c-0.1-0.1-0.1,0.3,0.6,0.6c0.8,0.3,1,0.4,1,0.7c0.1,0.3,0.1,0.5,0.2,0.8
		c0.2,0.3,0.2,0.4-0.1,0.5c-0.3,0.1-0.2,0.1,0,0.3c0.2,0.1,0.7,0.4,1.4,0.5c0.7,0.1,0.9,0.2,0.4-0.4
		C77.6,159.9,76.8,158.7,76.7,158.5z M78.9,161.5c0.4,0.4,0.3,0.8,0.2,1c0,0.2-0.4,0-1.2-0.1c-0.7-0.2-0.6-0.1,0,0.2
		c0.6,0.3,1.1,0.3,1,0.7c0,0.5,0.6,0,0.9-0.2c0.3-0.3,0.3,0,1.4,0.1c1.2,0.2,1.4,0.4,1.2-0.1c-0.2-0.5,0.5-0.5-0.5-0.9
		C81,161.8,78.5,161.1,78.9,161.5z M75.6,161.8c-0.4-0.5-1-0.5-1-0.1c0,0.4,0.1,0.4,0.5,0.5C75.6,162.3,75.9,162.1,75.6,161.8z
		 M83.9,163.9c-0.5-0.2-0.6,0.2-0.3,0.5c0.3,0.3,0.8,0.2,1.3,0.2C85.4,164.5,84.8,164.2,83.9,163.9z M78.5,106.2
		c-0.6,0.3-1,0.4-0.4,1.2c0.5,0.7,0.9,1.2,1.1,0.6C79.4,107.5,79.6,105.7,78.5,106.2z M73.6,113.8c-0.9,0.2-1.2,0.2-1.1,0.7
		c0.1,0.5,0.4,0.4,1,0.1C74.1,114.3,74.6,113.7,73.6,113.8z M75.5,114.6c-0.2,0-0.2,0.4,0,0.7c0.2,0.3,0.6-0.1,0.8-0.5
		C76.5,114.5,76.1,114.4,75.5,114.6z M65.3,89.2c-0.9,0-2.2,0.3-1.5,0.4c0.7,0,1.3,0.2,2.5,0.1c1.2-0.1,1.3-0.2,1.3-0.7
		C67.7,88.3,66.9,89.1,65.3,89.2z M59.7,84.3c-0.9,0.3-0.7,0.5,0.4,0.9c1.1,0.5,1.1,0.2,1-0.6C61,83.7,60.2,84.1,59.7,84.3z
		 M123,107.4c-1.1,0.3-1.5,0.1-1.7,0.7c-0.2,0.6-0.7,0.3-0.9,0.3c-0.3,0.1-0.6,1.7-0.8,1.4c-0.2-0.2-0.2-0.4-0.5-0.9
		c-0.3-0.5,0.1-0.4-0.4-1c-0.5-0.6-1.5-0.5-1.5-0.3c-0.1,0.2,0.7,0.4,0.4,0.7c-0.3,0.3-0.9,0.6-1.1,0.8c-0.2,0.2,0.4,0.1,0.9,0
		c0.4-0.1,0.7,0.3,0.9,0.6c0.2,0.3-0.2,0.6-0.4,0.7c-0.2,0.1,0.6,0.1,0.9,0.2s0.5,0.3,0.3,0.7c-0.2,0.4,0.9,0.1,1.6,0
		c0.6,0,0.8,0.4,1.8,0.1c1-0.3,1.4-0.3,2.3-0.9c0.9-0.7,0.8-0.5,1.4-0.9c0.6-0.4,0.4-0.6,0.5-1c0-0.5,0.4,0.1,0.2-0.6
		c-0.1-0.7-0.9-0.5-1.4-0.6c-0.5-0.1-0.5-0.5-0.7-0.6C124.5,106.7,124.2,107.1,123,107.4z M198,168.1c0,0.2-0.1,0.4-0.1,0.7
		c0,0.4,0,0.8,0,1.1c0,0.4,0.1,0.6,0.3,0.7c0.2,0.1,0.3,0.2,0.7,0c0.3-0.2,0.7-0.4,0.5-0.9c-0.2-0.4-0.5-1-0.7-1.3
		C198.4,168.2,198.1,167.8,198,168.1z M197.7,167.6c0,0.2,0.1,0.1,0.2,0.2c0.1,0.1,0.2,0,0.1-0.1c-0.1-0.1-0.1-0.2-0.1-0.2
		S197.7,167.5,197.7,167.6 M229.7,189.7C229.7,189.7,229.7,189.7,229.7,189.7c-0.6,0.7-1.2,0.5-2.2,0.8c-1.1,0.3-2.9,1.4-3,1.9
		c-0.1,0.5,0,0.5-0.1,0.5c-0.1-0.1-0.4-0.4-0.4-0.4s-0.3,0.6-0.2,1.1c0.1,0.5,0.3,0.8,0.3,1.5c0,0.7-0.3,1.1-0.2,1.5
		c0,0.5,0.8,1.3,1,1.9c0.2,0.5,0.3,0.4,0.4,1.4c0.1,1,0.6,1.5,0.1,2c-0.5,0.5-0.9,0.4-0.3,1c0.6,0.5,1.1,0.9,2.1,0.5
		c1-0.4,0.7-0.7,1.5-0.8c0.8-0.2,0.9-0.3,1.6-0.4c0.7,0,1.1,0,1.4-0.5c0.2-0.5,0.1-0.5,0.7-0.8c0.7-0.3,0.6-0.4,1-0.5
		c0.4-0.1,0.7,0.2,1.3-0.2c0.6-0.5,0.2-0.5,1.5-0.5c1.3,0,1.9,0.2,2.4,0.4c0.5,0.2,1.3,0.6,1.5,0.9c0.2,0.3,0.5,0.7,0.6,0.7
		c0.1,0,0.2,0,0.5-0.3c0.3-0.3,1.2-0.9,1.2-0.9s0,0.7-0.2,0.9c-0.2,0.2-0.2,0.6-0.2,0.7c0,0.1,0.5-0.4,0.6-0.4c0.1,0,0.1,0.9,0.2,1
		c0.1,0.1,0.3,0,0.5,0.3c0.2,0.3,0.5,0.5,0.7,1c0.2,0.5,1,1,1.6,1.1c0.5,0.1,1,0,1.4,0c0.4-0.1,0.4-0.5,0.8-0.4c0.4,0.2,0,0.6,1,0.5
		c1-0.1,1.3-0.4,1.7-0.7c0.4-0.3,0.4,0.4,1-0.3c0.5-0.7,0.6-0.5,0.7-1.4c0.1-0.8,0.1-1,0.6-1.8c0.5-0.8,0.6-0.4,0.9-1.6
		c0.3-1.2,0.8-2.3,0.7-3.3c0-1,0-0.3-0.2-1.4c-0.2-1.1-0.1-1-0.8-1.4c-0.7-0.5-0.9-0.3-1.1-1c-0.2-0.6,0-0.8-0.3-0.8
		c-0.3,0-0.6,0.1-0.8-0.3c-0.2-0.4-0.2-0.6-0.6-1c-0.4-0.4-0.7-0.3-1.4-0.6c-0.7-0.3-0.3-0.4-0.3-0.9c0-0.5,0-1.1-0.5-1.4
		c-0.5-0.2-0.2,0.1-0.2-0.7c0-0.9,0-0.8-0.4-0.9c-0.4-0.2-0.6-0.1-0.9-0.7c-0.3-0.5-0.7-1.4-0.8-1.8c-0.1-0.4-0.3,0-0.5,0.3
		c-0.2,0.3-0.4,0.8-0.4,1.4c0,0.5,0.2,0.8,0.2,1.6c0,0.7-0.5,1.4-0.8,1.8c-0.3,0.4-0.6,0-0.8-0.1c-0.3-0.1-0.3-0.5-0.9-0.8
		c-0.6-0.3-1.6-0.5-2.1-1c-0.5-0.4-0.1-0.4,0-0.9c0.1-0.4,0.4-0.8,0.7-1.1c0.4-0.3,0.3-0.4-0.2-0.6c-0.4-0.2-1.1-0.3-1.8-0.3
		c-0.8,0-1.2-0.1-1.2,0.4c0,0.4,0.5,0.6-0.1,0.5c-0.6-0.1-1.2-0.2-1.5,0.1c-0.3,0.3-0.3,0.5-0.5,1.1c-0.2,0.6,0,0.7-0.2,0.7
		c-0.3,0-1.3-0.5-1.7-0.7c-0.4-0.2-0.5-0.1-1,0.2c-0.4,0.4-1.9,1.6-2.4,1.9C230.2,188,230.2,188,229.7,189.7z M209.9,171
		c-0.3,0-0.5-0.1-0.1,0.4c0.4,0.5,0.5,0.6,0.9,0.9c0.4,0.3,0.5-0.2,0.8,0.4c0.3,0.7,0.2,0.7,0.5,0.9c0.3,0.2,0.5,0.3,0.6,0.6
		c0.1,0.2,0.2,0.6,0.5,0.9c0.3,0.3,0.3,0.2,0.5,0.8c0.2,0.5,0.5,0.9,0.6,1.4c0.1,0.5,1,0.9,1.4,1.4c0.4,0.6,1.2,1.4,1.3,1.1
		c0.1-0.2,0.4,0,0.7-0.1c0.2-0.1,0.3-0.4,0.4-1.2c0.1-0.8-0.1-1.1-0.3-1.3c-0.2-0.2-0.6-0.2-0.7-0.4c-0.1-0.2-0.3-0.7-0.5-0.9
		c-0.3-0.2-0.3,0-0.3-0.4c0-0.4,0.3-0.4-0.1-0.6c-0.4-0.2-0.4-0.4-0.5-0.6c-0.1-0.1-0.9-0.3-1.1-0.5c-0.2-0.2-1.1-0.6-1.5-1
		c-0.4-0.4-0.9-0.7-1-1C211.7,171.4,211.3,171.2,209.9,171z M218.6,179.9c-0.4,0-0.5-0.2-0.8,0.2c-0.2,0.4-0.2,0.4,0.2,0.4
		c0.4,0,0.3,0.2,0.3,0.2c0,0.1-0.2,0,0.6,0.3c0.8,0.3,1.3,0.2,1.5,0.1c0.2-0.1,0.3,0.3,1.3,0.4c1,0.2,1.6-0.1,2.3,0.1
		c0.7,0.2,0.5-0.1,0-0.4c-0.5-0.4-0.4-0.2-0.9-0.5c-0.5-0.3-1.1-0.4-1.4-0.4c-0.3-0.1,0.3,0.3-0.7,0.2c-0.9-0.1-0.6,0.1-1.1-0.2
		c-0.5-0.3-0.5-0.4-0.8-0.4C218.6,179.8,218.6,179.9,218.6,179.9z M226.1,181.4c-0.3,0.1-0.8,0.2-0.6,0.3c0.3,0.1,0.1,0.2,0.8,0.1
		c0.8-0.1,1.5-0.2,1.6-0.3c0.1-0.2-0.1-0.1-0.5-0.2c-0.3-0.1-0.3,0.1-0.7,0.1C226.3,181.6,226.1,181.4,226.1,181.4z M228.8,181.4
		c-0.5,0.1-0.5,0.2,0,0.3c0.4,0.1,0.8,0.2,1.1,0.1c0.3-0.1,0.4-0.2,0.9-0.3c0.6-0.1,0.8-0.1,1.2-0.1c0.5-0.1,0.5-0.1,0.5-0.1
		s0-0.1-0.4-0.1c-0.3,0-0.5,0-0.8,0s-0.8,0.3-1.1,0.3c-0.2,0-0.7-0.2-0.8-0.1C229.4,181.5,229.4,181.3,228.8,181.4z M231.8,182
		C231.8,182,231.8,182,231.8,182c-0.4,0.3-0.4,0.3-0.4,0.5c0,0.2,0,0.3,0,0.3s0.5,0,0.9-0.4c0.4-0.4,0.4-0.4,0.8-0.6
		c0.4-0.2,0.9-0.6,0.9-0.6s-0.3,0.1-0.7,0c-0.4,0-0.7,0.2-0.8,0.3C232.4,181.7,232.7,181.7,231.8,182z M228.7,182.3
		c-0.4-0.3-0.8-0.2-0.8-0.1c0,0.2-0.3,0.2,0.2,0.4c0.5,0.2,1.1,0.5,1,0.2C229.1,182.5,228.9,182.4,228.7,182.3z M225.2,170.8
		c-0.2,0.3,0.2,0.2-0.1,0.5c-0.3,0.3-0.6,0.2-0.9,0.6c-0.3,0.4-0.8,0.7-1,0.9c-0.2,0.2-0.9,0.3-1.2,0.7c-0.3,0.4,0.1,0.6,0.1,0.6
		s-0.2,0.1-0.7-0.1c-0.5-0.2-0.5-0.4-0.5-0.4s-0.3,0-0.5,0.5c-0.2,0.5-0.3,0.6,0,0.9c0.3,0.3-0.2,0.3-0.2,0.5
		c0.1,0.2,0.1,0.6,0.3,0.6c0.2,0,0.3-0.2,0.5,0.1c0.3,0.3,0,1.2,0.4,1.3c0.3,0,0.6-0.1,0.8,0c0.3,0.1,0.5,0.2,0.9,0.1
		c0.4-0.1,0.8,0,1,0.1c0.2,0.1,0.9,0.3,1.2,0.3c0.3,0,0.4,0.1,0.5-0.4c0.1-0.5,0-0.9,0.4-1.3c0.4-0.4,0.4-0.4,0.5-0.7
		c0-0.3,0-0.7,0.3-1.1c0.3-0.4,0.4,0.2,0.5-0.1c0.1-0.3,0.3-0.3,0.2-0.4c-0.1-0.1-0.5-0.1-0.6-0.4c-0.1-0.3,0-0.4-0.1-0.9
		c-0.2-0.5-0.3-0.3,0-0.6c0.3-0.3,0.5-0.4,0.5-0.6c0-0.2,0.1-0.2,0.4-0.5c0.3-0.2,0-0.1-0.3-0.3c-0.3-0.2-0.8-1-1.2-1
		C226.1,169.6,225.4,170.4,225.2,170.8z M268.9,200c-0.1-0.1-0.3,0,0.1,0.4c0.3,0.4,0.4,0.3,0.6,0.3c0.2,0,0.4,0.8,0.5,1
		c0.1,0.2,0.3,0.4,0.3,0.4s0.1,0.8,0,1.2c-0.1,0.4-0.3,0.5-0.4,0.9c-0.1,0.3,0.3,0.2,0.6,0.4c0.3,0.1,0.2,0.1,0.1,0.4
		c-0.1,0.3-0.4,0.4-0.4,0.5c0,0.1,0.6,0.4,0.9,0c0.3-0.4,0.8-0.9,0.9-1.3c0.1-0.4-0.2-0.2,0.2-0.5c0.4-0.3,0.4-0.2,0.6-0.5
		c0.2-0.4,0.5-0.7,0.2-0.9c-0.3-0.2-0.5,0.2-0.8,0.3c-0.2,0.1-0.4,0.1-0.7-0.1c-0.3-0.2-0.4-0.2-0.5-0.4c-0.1-0.3-0.3-0.4-0.3-0.4
		s-0.1,0.5-0.3,0.3c-0.2-0.2-0.2-0.3-0.3-0.6c-0.2-0.3-0.2-0.3-0.3-0.5c-0.1-0.2,0-0.6-0.5-0.6C269,200.1,269.1,200.1,268.9,200z
		 M269,205c0,0-0.4,0.4-0.8,0.9c-0.4,0.5-0.4,0.7-0.5,1c-0.1,0.3-0.5,0.6-1.3,1c-0.7,0.4-1,0.5-1.2,0.9c-0.2,0.3-1.1,1.4-1.2,1.5
		c-0.1,0.1,0.4,0.2,0.9,0.2c0.5,0,1.3,0.5,1.8,0c0.4-0.5,0.9-1.6,1.2-2c0.3-0.4,0.5-0.6,1-1c0.4-0.4,1.2-1.1,1.2-1.4
		c0-0.3-0.2-0.8-0.2-0.8s-0.2,0.3-0.5,0.3C268.9,205.6,269,205,269,205z M265.5,210.3c-0.5-0.3-0.6,0.2-0.7,0.8
		c-0.1,0.5,0.2,0.1,0.7-0.2C265.9,210.7,265.7,210.4,265.5,210.3z M247.9,206.7c-0.6-0.2-0.5,0.4-0.4,0.8c0.1,0.4,0.2,0.7,0.4,1.1
		c0.2,0.3,1.1,0.5,1.4,0.3c0.3-0.2,0.6-0.7,0.9-1.1c0.3-0.5,0.5-1,0.4-1.3c-0.1-0.3-0.5,0.3-0.7,0.4c-0.3,0.1-0.6,0.4-1.1,0.3
		C248.2,207,248.1,206.8,247.9,206.7z M240.5,177.1c-0.5,0.1-0.7-0.3-1.1-1.1c-0.4-0.8-0.7-0.9-1.7-0.6c-1,0.4-0.8,0.3-0.2,0.5
		c0.7,0.2,0.7,0.3,0.8,0.3c0.1,0,1,0.1,0.8,0.3c-0.2,0.1-1.1,0.3-0.5,0.7c0.6,0.4,0.3,0.1,1.8,0.9s1.7,0.2,2.2,1.2
		c0.5,1,0.5,0.8,0.1,1c-0.4,0.2-0.9,0.5-0.7,0.5c0.2,0,0.6,0.1,1.6,0.2c1,0.1,0.1,0.6,1.2,0.6c1.1,0,1.4-0.4,1.9-0.9
		c0.4-0.5,0.5-0.2,1.5,0c0.9,0.2,1.3,1,2.5,1.4c1.2,0.3,1.7,0.8,0.9,0.1c-0.7-0.7-1-1.2-2-2c-1-0.8-1.1-0.9-1.4-1.5
		c-0.3-0.6-1.3-1.3-2.5-1.8c-1.2-0.5-1.8-0.5-3.2-0.9C241.2,175.6,241,177,240.5,177.1z M232.7,174.4c-0.4,0.3-0.5,0.1-0.8-0.1
		c-0.3-0.2-0.2,0.4-1,0.1c-0.7-0.3-1-0.5-1.8,0.1c-0.8,0.6-0.3,0.8-0.3,1.2c0,0.4-0.7,1.6-0.9,2c-0.2,0.4-0.2,0.6-0.1,0.9
		c0.2,0.3,0.4,0.2,0.6,0.3c0.1,0.1,0,1.2-0.1,1.6c-0.1,0.4,0.3,0.4,0.8,0.3c0.5-0.1,0.1-0.1,0.1-0.5c0-0.4,0.2-0.5,0.2-1.3
		c0-0.7,0-1,0-1s0.1-0.1,0.3,0.2c0.2,0.2,0.4,0.9,0.6,1.3c0.2,0.3,0.4,0.6,0.7,0.4c0.3-0.2,0.6-0.5,0.6-0.5s-0.6-0.2-0.6-0.4
		c0-0.2,0.3-0.4-0.2-1.1c-0.4-0.7-0.6-0.7-0.1-0.8c0.5,0,0.5-0.6,0.8-0.7s0.8-0.1,0.8-0.1s-0.3-0.3-0.8-0.2
		c-0.5,0.1-0.9,0.2-1.3,0.4c-0.4,0.2-0.8,0.4-0.8-0.1c-0.1-0.4-0.1-0.5-0.1-1.1c0.1-0.6,0.7-0.1,1.2-0.3c0.5-0.1,0.5-0.1,1.5,0
		c1.1,0.1,1.1-0.2,1.4-0.6c0.3-0.4,0.5-0.9,0.5-0.9S233.2,174,232.7,174.4z M235.2,172.9c0.1-0.2-0.8,0.6-0.9,0.7
		c-0.2,0.2,0,0.4,0.1,0.6c0.1,0.2,0.1,1,0.1,1.1c0,0.2,0.5,0.3,0.5,0.3s0-0.5,0.1-0.7c0.2-0.2,0-0.5,0-1
		C235.2,173.5,234.9,173.4,235.2,172.9z M233.5,177.4c-0.7-0.3-0.9-0.1-0.9,0.3c0,0.4-0.1,0.5,0.6,0.5
		C234,178.2,234.8,177.9,233.5,177.4z M234.9,177.2c-0.2,0.1-0.3,0.6-0.2,0.9c0.1,0.3,0.2,0.1,0.6,0c0.4-0.1,0.3-0.4,0.8-0.4
		c0.5,0,1.5,0.3,1.5,0.3s0.2-0.2-0.6-0.7C236.2,176.8,235.8,176.8,234.9,177.2z M221.3,159.6c0,0-0.7,0-0.8,0
		c-0.1,0-0.3,0.3-0.5,0.4c-0.2,0.1-0.2,0.2-0.1,0.5c0.1,0.3,0.3,0.3,0.7,0.4c0.3,0.1,0.2-0.1,0.5-0.2c0.2-0.1,0.3-0.3,0.4-0.5
		c0.1-0.2,0.2-0.3,0.3-0.4c0.1-0.1-0.2-0.3-0.2-0.3C221.5,159.4,221.3,159.6,221.3,159.6z M229.3,160.6c-0.3-0.2-0.4,0.5-0.5,0.9
		c-0.1,0.4-0.2,0.6,0,0.9c0.1,0.3,0.1,0.3,0.1,0.3l-0.4-0.3c0,0-0.1,0.3-0.1,0.6c0,0.3-0.1,0.4,0.3,0.6c0.4,0.2,0.6,0.1,0.7,0.4
		c0.1,0.3,0.1,0.5,0.4,0.5c0.3,0.1,0.6,0.2,0.8,0.4c0.1,0.2,0.1-0.5,0.3-0.5c0.2,0,0.4,0.3,0.6,0.5c0.1,0.2,0.4,0.2,0.4,0.2
		s-0.3-0.6-0.2-0.6c0.1-0.1,0.2-0.1-0.2-0.4c-0.4-0.2-0.7-0.2-1-0.2c-0.3,0-0.3,0.2-0.5-0.4c-0.2-0.6,0-0.9,0-1.1
		c0-0.1,0.2,0.2,0.3-0.2c0.2-0.4,0.2-0.7,0.2-1.1c0-0.4,0.3-0.5,0-0.6C230.1,160.7,229.5,160.7,229.3,160.6z M232.9,168
		c0,0.3-0.3-0.1-0.4,0.1c-0.1,0.2-0.2,0.1-0.4,0.2c-0.2,0.1-0.6,0.5-0.6,0.5s0-0.3,0-0.3c0-0.1-0.1-0.4-0.3-0.2
		c-0.1,0.2-0.3,0.4-0.6,0.5c-0.3,0.2-0.5,0.4-0.5,0.7c0,0.3,0.2,0.3,0.2,0.3s0.1-0.1,0.3-0.4c0.2-0.3,0.2-0.3,0.6-0.4
		c0.4,0,0.3,0,0.5,0.2c0.1,0.2,0,0.5,0,0.7c0,0.2,0,0.5,0.4,0.6c0.4,0.1,0.2,0,0.6,0c0.3,0,0.3,0,0.3-0.2c0-0.2-0.2-0.3-0.2-0.5
		c0-0.2,0.2-0.3,0.3-0.3c0.1,0,0.1,0.2,0.2,0.5c0.1,0.3,0.1,0.2,0.2,0.1c0-0.2,0.2-0.7,0.1-0.9c0-0.2-0.1-0.4-0.1-0.6
		c0-0.2-0.2-0.5-0.3-0.5c-0.1-0.1-0.4-0.4-0.4-0.4S232.8,167.7,232.9,168z M231.2,166.3c0,0,0-0.2-0.3-0.5c-0.3-0.3-0.3-0.4-0.8-0.5
		c-0.5-0.1-1,0-0.8,0.6c0.2,0.5,0.3,0.6,0.7,0.7c0.4,0.1,0.7-0.2,0.7-0.2s0,0.1-0.4,0.3c-0.4,0.2-0.4,0.7-0.1,0.9
		c0.3,0.2,0.3,0.5,0.5,0.3c0.2-0.1,0.3-0.6,0.7-1c0.4-0.3,0.4-0.4,0.4-0.7c0-0.4,0-0.6,0-0.6L231.2,166.3z M232,165.3
		c0,0-0.3,0,0,0.2c0.3,0.3,0.5,0.3,0.5,0.5c0,0.2,0,0.2-0.2,0.2c-0.2,0-0.2-0.1-0.3-0.1c-0.1,0-0.1,0.1,0,0.2c0,0.1,0,0,0.2,0.2
		c0.1,0.2,0.1,0.3,0.1,0.5c0,0.2,0.1,0.1,0.1,0.1s0-0.6,0-0.7c0-0.1,0-0.4,0.1-0.3c0.2,0.1,0.1,0.4,0.3,0.1c0.1-0.3,0.1-0.6,0-0.8
		c-0.1-0.2-0.3-0.3-0.5-0.3C232.1,165.3,232,165.3,232,165.3z M228.2,166.2c-0.1,0-0.2,0.1-0.2,0.5c-0.1,0.4-0.3,0.6-0.5,0.8
		c-0.2,0.2-0.8,0.8-0.9,0.9c0,0.1,0,0,0.4-0.2c0.5-0.2,0.8-0.5,0.9-0.8c0.1-0.3-0.1-0.1,0.4-0.3c0.4-0.2,0.2-0.3,0.2-0.6
		C228.4,166.3,228.4,166.2,228.2,166.2z M252.7,177.5c0,0.4,0.1,0.5-0.2,0.8c-0.4,0.3-0.8,0.3-1.1,0.3c-0.4,0.1-0.1-0.1-0.6-0.1
		c-0.5,0-0.6,0-0.4,0.3c0.2,0.2,0.2,0.5,0.9,0.4c0.7,0,1.3-0.4,1.7-0.5c0.4-0.1,0.4-0.5,0.4-0.7S252.7,177.1,252.7,177.5z
		 M254.6,178.4c0.2,0.3,0.1,0.2,0.4,0.6c0.2,0.4,0.6,0.4,0.9,0.5c0.3,0.1,0-0.1-0.2-0.4c-0.2-0.3-0.2-0.4-0.5-0.7
		C254.8,178,254.3,177.9,254.6,178.4z M229.6,155.2c-0.9,0.6-1.4,0.6-1,1.3c0.4,0.8,0.6,1.1,0.7,1.2c0.1,0.1,0.2-0.1,0.5-0.7
		c0.3-0.6,0.3-1.4,0.4-1.6C230.3,155.1,229.9,155,229.6,155.2z M245.9,125.4c0.1,0.4,0.2,1,0,1.1c-0.2,0.1-0.4,0.5-0.5,1
		c-0.1,0.5-0.2,1,0.1,1.4c0.3,0.4,0.1,0.4,0.1,0.7c0,0.3,0.1,1.1-0.1,1.5c-0.1,0.5-0.2,0.6-0.2,1c0.1,0.5,0,0.6,0,1.3
		c0,0.7,0,1.2,0,1.5c0,0.3,0.2-0.1,0.3-0.2c0.1-0.1,0.5-0.2,0.7,0.1c0.2,0.2,0.2,0.2,0.2,0.2s0.4,0.2-0.1-0.9
		c-0.5-1-0.6-0.8-0.4-1.8c0.1-1,0.2-1,0.7-1.1c0.5-0.1,0.8,0.6,0.8,0.7c0.1,0.1,0-0.2-0.2-0.8s-0.3-0.7-0.4-1.4
		c-0.1-0.7-0.3-1.2-0.5-1.4c-0.3-0.2-0.1-0.5,0-0.8c0.1-0.3,0.2-0.7,0.1-1.1c-0.1-0.5-0.2-1.1-0.3-1.3c-0.1-0.2-0.4,0.2-0.4,0.2
		L245.9,125.4z M245.4,136c0,0.3,0.1,0.6-0.1,0.9c-0.2,0.3-0.1,0.4-0.2,0.9c-0.1,0.5-0.7,0-0.7,0.1c0,0.1-0.1,0.4-0.2,0.6
		c-0.1,0.1-0.7,0.2-0.5,0.6c0.1,0.5,0.4,1,0.4,1s0.3-0.3,0.4-0.3c0.1,0,0.3-0.1,0.3-0.1s0-0.1-0.4-0.3c-0.3-0.2-0.3-0.5-0.3-0.6
		c0-0.1,0.5,0,0.7,0c0.3,0,0.5-0.2,0.8,0.1c0.3,0.3,0.8,0.4,0.8,0.4s0.1-0.4,0.2-0.7c0.1-0.3,0.6-0.2,1-0.3c0.4-0.1,0.8-0.2,0.6-0.4
		c-0.1-0.2-0.1-0.6-0.2-0.9c-0.1-0.3-0.4,0-0.6,0.1c-0.2,0.1-0.5,0-0.8-0.2c-0.3-0.2-0.8-0.9-1-1.2
		C245.7,135.8,245.4,135.7,245.4,136z M244.1,140.5c-0.1,0.1-0.3,0.4-0.3,0.8c0,0.4,0.4,0-0.1,1.2c-0.4,1.2-0.7,1.5-1.1,1.8
		c-0.4,0.3-0.8,0.3-1,0.2c-0.2-0.1,0-0.4,0.2-0.4c0.1-0.1-0.4-0.1-0.6-0.1c-0.2,0,0,0.3,0,0.5c0,0.2-0.4,0.7-0.4,1
		c0,0.2,0,0.3-0.2,0.4c-0.3,0.1-0.4-0.2-0.5-0.2c-0.1,0-0.5,0.1-1,0.1c-0.5,0.1-0.7,0.2-0.9,0.6c-0.2,0.4-0.7,0.4-1.1,0.6
		c-0.4,0.1-0.2,0.7-0.6,0.9c-0.4,0.2-0.4,0.5-0.4,0.8c0,0.3,0.3,0.1,0.3,0.1c0,0,0-0.4,0.3-0.4c0.3,0,0.3,0.1,0.2,0.3
		c-0.1,0.3-0.2,0.4-0.3,0.7c-0.1,0.2,0,0.4,0.2,0.6c0.2,0.2,0.4-0.1,0.8-0.5c0.4-0.4,0.5-0.5,0.4-1.1c0-0.5-0.2-0.5-0.5-0.7
		c-0.3-0.1-0.4,0,0-0.4c0.3-0.4,0.5,0,0.7-0.2c0.2-0.2,0.8-0.2,1.3-0.3c0.5-0.1,1.1-0.3,1.1-0.1c0,0.2,0.2,0.8,0.2,0.9
		c0,0.1,0.4-0.2,0.7-0.3c0.4-0.1,0-0.2,0-0.4c0-0.2,0.2-0.4,0.2-0.4s0.2,0.4,0.8,0.1c0.6-0.3,0.6-0.4,0.8-0.4c0.2,0,0.3,0.2,0.5,0
		c0.2-0.2,0.3,0,0.2,0.1c0,0.1,0.7-0.2,0.9-0.4c0.2-0.1,0.1,0,0-0.4c-0.1-0.4-0.3-0.5-0.2-1c0.1-0.6,0.1-0.6,0.1-1
		c0-0.4,0.2-0.4,0.3-0.4c0.1,0,0.1-0.5,0.3-0.7c0.2-0.2,0.1-0.4,0.1-0.9c0-0.6-0.3-0.5-0.3-0.9c0-0.4,0.1-0.8,0.1-0.8
		s-0.6,0.2-0.7,0.4c-0.1,0.1-0.1,0.1-0.1,0.1S244.3,140.4,244.1,140.5z M239.9,146.7c-0.7,0.1-1.1,0.2-1.5,0.3
		c-0.4,0.1-0.5,0.3-0.4,0.7c0.1,0.4,0.2,0.8,0.3,1c0.1,0.2,0.3,0,0.6-0.2c0.4-0.2,0.3-0.8,0.7-0.8c0.4,0,0.2,0.4,0.7-0.2
		c0.5-0.6,0.1-0.6,0.1-0.9C240.5,146.4,239.9,146.7,239.9,146.7z M281.4,116.1c-0.7-0.1-0.9-0.3-1,0c-0.1,0.3-0.1,0.3,0.3,0.5
		c0.4,0.2,0.7-0.1,1.1,0.2c0.4,0.3,0.5,0.3,0.9,0.3c0.3,0,0.4-0.2,0.4-0.2S282,116.2,281.4,116.1z M273.4,105
		c-0.3,0.1-0.5-0.2-0.4,0.5c0.1,0.6,0.2,0.7,1,0.6c0.8-0.1,0.2,0,1.3-0.1c1.1-0.1,1.3-0.2,1.3-0.2s-0.2-0.3-0.5-0.6
		c-0.4-0.3-0.9,0.2-1.7,0.1C273.6,105,273.4,105,273.4,105z M248.4,95.7c0,0.2,1.1,0.9,1.5,1.1c0.4,0.2,0.7,0.1,1.6,0
		c0.8-0.1,0.9-0.5,1-0.7c0.1-0.2-0.4-0.1-1-0.2c-0.6-0.1-1,0.1-1.2,0c-0.2-0.1,0.3-0.2-0.2-0.4c-0.5-0.2-0.6,0.1-0.7,0
		c-0.1-0.1-0.1-0.3-0.4-0.3C248.7,95.2,248.4,95.5,248.4,95.7z M244,97.1c-0.4,0.2-0.4,0.3,0.1,0.7c0.4,0.4,0.3,0.3,0.1,0.5
		c-0.2,0.3,0,0,0.6,0.3c0.6,0.3,0.9,0.8,1.3,0.9c0.4,0.1,0.7,0,0.7,0s-0.1-0.4-0.5-0.9c-0.4-0.5-1.2-0.6-1.3-1.1
		C244.8,97,244.6,96.9,244,97.1z M248,95.1c0,0-0.6-0.3-1.4-0.9c-0.9-0.5-1.2-0.7-1.5-0.7c-0.3,0-0.2,0.3-0.4,0.6
		c-0.1,0.3-0.2,0.2-0.6,0c-0.4-0.2-0.9-0.5-1.3-0.7c-0.5-0.1-0.7,0.3-1.3,0.8s-0.2,0.7,0.4,1.4c0.6,0.8,0.9,0.8,1.4,0.5
		c0.5-0.3,0.4-0.5,0.7-0.4c0.4,0.1,1.6-0.1,1.7-0.1c0,0-0.1,0.7,0.5,0.5c0.6-0.2,1.1-0.3,1.3-0.6C247.8,95.3,248,95.1,248,95.1z
		 M209.5,80.3c-0.2,0.1-1.1,0.1-1.6,0.8c-0.5,0.8-0.8,0.2-1.1,0.7c-0.3,0.5-0.5,1-0.5,1s0.4,0.5,0.9,0.5c0.5,0,1.3,0.2,1.8,0.8
		c0.5,0.6,0.8,0.6,1.9,0.8c1.1,0.2,0.6,0.3,1.2,0.3c0.6-0.1,1.4,0.1,1.2-0.2c-0.2-0.3-0.3-0.5-0.2-1c0.1-0.6,0.6-0.5,0-0.9
		c-0.6-0.4-1-0.1-1-0.1c0-0.1,0.5-0.3,0.3-0.3c-0.2,0-1.2-0.1-1.3-0.6c-0.1-0.6,0.3-0.6,0.5-0.7c0.2,0,0.2-0.1-0.4-0.5
		c-0.6-0.4-1.4-0.9-1.4-0.9C209.4,80.2,209.7,80.2,209.5,80.3z M215.1,84.5c-0.4,0.1-0.8,0.5-1,0.9c-0.3,0.4-0.8,0.9-1.1,1.2
		c-0.3,0.2-0.2,0.3,0.3,0.5c0.5,0.2,1.4-0.3,1.6-0.3c0.3,0,0.4,0.4,1.2,0.3c0.8-0.1,2-0.2,1.4-0.7c-0.6-0.4-0.4-0.2-1-0.7
		c-0.7-0.5-1.5-0.6-1.5-0.6s1.3-0.5,1-0.5C215.8,84.5,215.1,84.5,215.1,84.5z M180.9,77.7c-0.8,0.3-0.5,0.4-1,0.8
		c-0.5,0.4-0.2,0.5,0.9,0.2c1.1-0.3,1.1-0.4,1.8-0.7C183.3,77.8,182,77.3,180.9,77.7z M182.6,79.7c-0.7,0.3-0.5,0.7-0.3,0.9
		c0.2,0.3,0.7-0.2,0.9,0.1c0.1,0.3,0.2,0.2,0.9-0.3c0.7-0.5,0.4-0.3,0.2-0.8C183.9,79.2,183.8,79.1,182.6,79.7z M178.6,79.5
		c-0.5,0.2-0.5,0.2,0,0.4c0.4,0.2,1.5,0.4,2.1,0c0.6-0.4,0.5-0.3-0.2-0.4C179.7,79.4,179.1,79.2,178.6,79.5z M171.7,80.3
		c0.7-0.1,1.4-0.1,2,0c0.6,0.1,0.4,0.6-0.7,0.7c-1.1,0.1,0.1,0.3,0.9,0.2c0.8,0,0.3-0.7,0.9-0.9c0.6-0.2,1-0.1,1.8-0.4
		c0.8-0.3-0.4-0.5-1.3-0.5c-0.9,0-1.2,0.1-1.9,0c-0.7-0.1-1.3,0.3-2.1,0.4C169.6,80.2,171,80.4,171.7,80.3z M177.3,80.5
		c-0.6,0-2.2,0.4-0.9,0.5c1.3,0.1,1.2,0.2,1.7,0C178.7,80.8,178,80.5,177.3,80.5z M181.8,80.8c-0.9-0.3-0.9-0.2-1.6-0.1
		c-0.7,0-1,0.5-0.5,0.7c0.5,0.2,0.8,0.1,1.1,0.1c0.4-0.1,0.4-0.2,0.1-0.3C180.7,81,182.4,80.9,181.8,80.8z M185.6,79.6
		c-0.7,0.1-0.7,0.2-0.8,0.4c-0.1,0.2,0.1,0.2,0.8,0.1c0.7-0.1,1.1-0.2,1.6-0.5c0.5-0.3-0.1-0.9-0.1-1c0-0.1-0.7,0.3-0.9,0.5
		C186.1,79.4,186.5,79.5,185.6,79.6z M131.2,119.3c-0.3,1-0.9,1.4-0.2,1.1c0.7-0.3,1.4-1.1,1.3-0.4c0,0.7-0.7,0.6-0.5,1.3
		c0.2,0.7,0.1,0.6,1.2,0.9c1.1,0.3,0.2,0.2,0.5,0.8c0.3,0.7,0.5,0.9,0.2,1.1c-0.3,0.2-1.2-0.6-1.2-0.3c-0.1,0.3,0.1,0.6,0.3,1.1
		c0.2,0.5-0.1,0.7-0.8,1.1c-0.7,0.3-0.1,0.5,0.4,0.5c0.5,0,1.8-0.3,1.6,0.2c-0.2,0.4-0.8-0.1-1.3,0.7c-0.4,0.7-2,1.4-1.2,1.3
		c0.8,0,0.7-0.3,3.2-0.6c2.5-0.4,0.8,0,2.4-0.5c1.6-0.5,1.1-0.6,0.2-0.5c-0.9,0.1,0.6-0.9,0.4-1.9c-0.2-1-0.8,0-1.2-0.7
		c-0.4-0.6-0.3-0.8,0.4-0.6c0.7,0.2,0.7-0.1-0.8-1.1c-1.4-0.9-0.5-0.7-1.2-1.5c-0.6-0.8-1.7-0.7-1.7-0.7s0.5-0.3,0.8-0.8
		c0.3-0.5,0.3-0.5,0.6-1.2c0.3-0.7-0.3-0.6-1-0.4c-0.8,0.2-1,0.2-0.8-0.1s0.3-0.4,0.6-0.8s0.4-0.6-0.2-0.4c-0.6,0.1-0.7,0.1-1.3,0.4
		C131,117.8,131.6,118.4,131.2,119.3z M129.5,121.6c-1.1,0.5-0.8,0.7-0.6,0.9c0.2,0.2,0.5-0.1-0.5,0.5c-1.1,0.6-1.1,1.3-0.5,1.4
		c0.6,0.1,0.5-0.3-0.1,0.8c-0.6,1.1-1,1.9,0.2,1.6c1.2-0.3,1.5-0.9,2.1-1c0.6-0.1,0.7-0.5,0.7-1.2c0-0.7-0.4-0.7,0.1-1.3
		c0.5-0.6,0.5-1.2-0.4-1.5C129.5,121.5,130.2,121.3,129.5,121.6z M143.8,137.2c-0.1,0.2,0.1,0.6-0.4,0.9c-0.5,0.3,0.2,0.6,0.4,0.8
		c0.2,0.3,0.3-0.9,0.3-1.5C144.1,136.8,144,136.7,143.8,137.2z M143.6,139.5c-0.8,0.4-0.8,0.6-0.9,1.2c-0.1,0.6,0.6,0.1,0.4,0.6
		c-0.2,0.5,0,0.8,0.8,0.3c0.8-0.5,0.3-0.9,0.5-1.5C144.5,139.5,144.6,139,143.6,139.5z M155.2,145.5c-0.7-0.1-1,0.4,0.2,0.5
		c1.1,0.1,1.6,0.1,2.1,0c0.4-0.1,0.1,0-0.5-0.4C156.4,145.3,156.1,145.6,155.2,145.5z M161.5,145.9c-0.9-0.2-0.7,0.9,0.3,0.7
		c0.9-0.2,0.6,0.1,1-0.6C163.2,145.3,162.5,146.1,161.5,145.9z M138.8,140.8c-0.7,0.1-0.8,0.3-0.2,0.5c0.6,0.2,0.5,0,0.8-0.3
		C139.8,140.8,139.2,140.7,138.8,140.8z M94,127.3c-0.5,0.4-1,0.9-1.6,2c-0.6,1.2-0.6,1-1.2,1.7c-0.6,0.6-0.3,0.5,1.6,0.9
		c1.9,0.4,1.8,0.7,2.2,0.5c0.4-0.1,0.5,0.2,0.5,0.6s0.4,0.2,0.6-0.5c0.2-0.6-0.2-1.7-0.6-2.4c-0.4-0.6-0.5-0.6-1.1-0.5
		c-0.6,0.2-0.4-0.1-0.6-0.6c-0.2-0.5-0.6-0.1,0-0.8C94.3,127.5,94.4,126.9,94,127.3z M34.8,125.9c0,0.6,0.7,1.7,1.1,2
		c0.5,0.3,0.4,0.2,0.2-0.6c-0.2-0.7,0-0.7-0.1-1.2C35.9,125.7,34.8,125.7,34.8,125.9z M38.1,129.3c0.1,0.1,0.5,0.7,1.2,1.1
		c0.7,0.5,0.9,0.5,1.6,0.7c0.7,0.2,1-0.1,0.6-0.5c-0.5-0.4-0.1-0.4-0.9-0.6c-0.8-0.2-1-0.1-1.4-0.4C38.7,129.5,37.8,129,38.1,129.3z
		 M20,122.4c-0.5-0.1-0.7-0.1-1.1,0.1c-0.4,0.3-0.5,0.5-0.3,0.9c0.2,0.3,0.1,0.1,0.5-0.2c0.5-0.3,0.2-0.4,0.8-0.5
		c0.6-0.1,0.5-0.3,0.5-0.3S20.4,122.5,20,122.4z M19.8,121.7c-0.4,0.2-0.5,0.4-0.1,0.3c0.4-0.1,0.3-0.3,0.6-0.3
		c0.3,0.1,0.3-0.1,0.3-0.1S20.2,121.5,19.8,121.7z M9.6,120.1c-0.5,0.2-1,0-0.7,0.1c0.3,0.2,0.7,0.4,1,0.3c0.3,0,0.5,0,0.4-0.2
		c-0.1-0.2-0.1-0.2-0.2-0.4C10.2,119.8,10.1,119.8,9.6,120.1z M173.5,187.5c-0.6,1.2-1.7,0.6-2.7,1.5c-0.9,0.9-0.8,0.6-0.1,1.9
		c0.7,1.3-0.6,1.1-0.9,2.6c-0.3,1.5,0.4,1.2,0.8,2.5c0.4,1.3,0.6,0.9,1.3,0.7c0.7-0.2,1.2-0.5,1.2-0.5s0.1-1.1,0.6-2.7
		c0.5-1.6,0.8-2.8,0.9-3.9c0.1-1.1,0.2-1.8,0.4-1.5c0.2,0.3,0.3,0.3,0.3-0.2c0-0.5-0.3-2-0.7-2.3C173.7,185,174.1,186.2,173.5,187.5
		z M174.4,102.6c-0.8,0.2-1.1,0.7-0.6,0.8c0.6,0.2,0.5,0.1,1.4-0.2C176.2,102.9,175.1,102.5,174.4,102.6z M188.9,88.6
		c-0.3-0.4-0.5,0.1-3.2,1.3c-2.7,1.2-2.7,0.2-5.2,2.2c-2.5,2-2,1.8-2.1,3c-0.1,1.2-0.7,0.7-1,1.8c-0.2,1.1-1.5,1.2-0.9,2.1
		c0.7,0.9,1.5,1.4,2.9,1.8c1.4,0.4,1.7,0,1.5-0.2c-0.3-0.1-1.3-1.8-1.1-3.6c0.2-1.8,0.9-1.6,1.5-2.3c0.6-0.7,2.1-2.5,3.1-3.1
		c1-0.6,3.6-1.4,4.9-1.9c0,0,0.1,0,0.1,0C190.3,88.5,189.1,89,188.9,88.6z M181.5,100.9c-0.3,0-0.5,0.1,0.1,0.6
		c0.6,0.6,1.1,1,0.9,0.2C182.4,101.1,181.8,100.9,181.5,100.9z M191.3,95.3c-0.4-0.2-0.7-0.4-0.8-0.1c-0.1,0.3,0.5,0.8,1.1,0.9
		C192.1,96.2,191.7,95.5,191.3,95.3z M89.3,130c-0.7-0.3-1.3-0.6-1.7-0.6c-0.4,0,0.1,0.5,0.8,0.8C89,130.7,89.7,130.2,89.3,130z
		 M87.7,132.8c0-0.5-0.4,0.6,0.1,0.9c0.5,0.3,0.7,0.3,1.1,0c0.3-0.3,0.1-0.1-0.4-0.2C88.1,133.5,87.7,133.3,87.7,132.8z
		 M281.8,113.8c-0.8,0.1-1.4-0.1-1.4-0.1s0,0.6-0.3,1c-0.2,0.3-0.1,0.6-0.1,0.6s-0.8-0.4-1.3-0.5c-0.5-0.2-0.9,0-1.2-0.7
		c-0.3-0.7-1.1-0.6-1.7-0.6c-0.6,0-0.4-0.8-0.4-0.8s0,0-0.4,0c-0.4,0-0.3,0.9-0.8,1.2c-0.5,0.3-2,0.5-2,0.5s1,0.7,1.2,1.3
		c0.2,0.6,0.6,1.1,0.6,1.1s-0.1,0.3-1.3,0c-1.2-0.2-1.1,0.2-2.4,0.7c-1.3,0.5-2.7,1.3-3.1,1.6c-0.4,0.3-0.4,0.1-1.5-0.1
		c-1.1-0.3-1.3,0.3-1.6,0.5c-0.3,0.1-0.2-0.7-0.2-0.7s-0.4,0-0.9,0.2c-5.1,2.6-1.6,2.4-1.7,3c0,0-0.5,2-0.5,2
		c-0.7,2.2-1.3,1.1-1.9,2.8c-2,5.6-3.2-0.9-3.2-2.3c0-0.9-0.2-2.1,0.4-2.4c5-2.3,0.5-0.3,5.1-3.5c1.5-1,0.7-1.7,1-1.9
		c0.3-0.3,0.9-0.4,0.9-0.4s0,0-0.8-0.1c-0.8-0.1-0.8,0.1-1.5,0.8c-0.6,0.7-1.2,0.8-1,0.3c0.1-0.5,0.2-1.1-0.3-0.8
		c-0.5,0.3-0.7,0.2-1.6,0.4c-0.9,0.2-1.9,0.6-2.7,1.7c-0.8,1-0.4,0.9-0.1,1.2c0.3,0.2-1.3,0.2-2.1,0.1c-0.8-0.1-0.4-0.2,0.1-0.4
		c0.4-0.1-0.7-0.3-1.6-0.5c-1-0.2-0.6,0.2-1.2,0.4c-0.6,0.2-0.6-0.2-0.8-0.3c-0.3-0.1-1.6-0.1-2.5-0.2c-0.9-0.1-0.8,0.1-1.1,0.4
		c-0.2,0.3-1.9,1.8-2.7,2.6c-0.7,0.8-1.6,1-2.5,1.8c-0.8,0.8-1,0.7-0.3,0.9c0.7,0.1,0.8,0.1,0.9,0.7c0.1,0.6,0.4,0.8,1.1,0.8
		c0.7,0,0.5,0.2,0.6-0.4c0.1-0.5-0.2-1.2,0.4-0.7c0.6,0.5,1.1,0.8,1.3,1.5c0.2,0.7,0,1.2-0.4,2.3c-0.3,1.1-0.4,2.8-0.8,3.6
		c-0.4,0.8-0.8,1.4-1.2,2.4c-0.5,0.9-2.7,3.2-3.2,3.4c-0.5,0.2-0.8,0.2-1.1-0.2c-0.2-0.5-0.4-0.4-1,0.1c-0.6,0.5-0.8,0.8-1.1,1.7
		c-0.2,0.8-0.7,0.8-1.2,1.4c-0.5,0.6-0.6,0.5-0.3,1.2c0.4,0.7,1,1.4,1.1,2.1c0.1,0.7-0.3,1.7-0.6,2.1c-0.2,0.4-1.4,0.6-1.4,0.4
		c0-0.2,0-1.2,0-1.8c0-0.6-0.5-0.6-0.3-0.8c0.2-0.2,0.8-0.5,0.3-0.9c-0.5-0.4-0.8-0.1-1-0.6c-0.2-0.5,0.1-0.9,0-1.1
		c-0.1-0.2-0.4-0.4-1.1-0.5c-0.7-0.1-0.8,0.6-1,0c-0.2-0.6,0.1-0.7-0.2-0.9c-0.3-0.2-0.6-0.1-1.4,0.6c-0.8,0.7-1,0.5-1.6,0.8
		c-0.7,0.3-0.7,0.5-0.5,0.7c0.2,0.2,0.7,1.2,1.2,1.3c0.5,0.1,0.8-0.2,1.5-0.2c0.7,0,0.8,0.1,0.7,0.4c-0.2,0.3-0.7,0.5-1.5,1.4
		c-0.9,0.9-0.6,0.7-0.3,1.1c0.3,0.4,0.7,0.8,1,1.5c0.3,0.7,0,0.9,0,1.3c0,0.4-0.1,1,0.5,1.6c0.6,0.6,0.2,0.4,0.1,0.6
		c-0.1,0.2-1,2-1.5,2.9c-0.4,0.9-0.4,1-1.9,2c-1.4,1-2.1,1.1-2.9,1.3c-0.8,0.1-1.4,0.4-1.8,0.5c-0.4,0.2-0.2,0.5-0.3,0.7
		c0,0.2-0.4,0-0.4-0.3c0.1-0.3,0-0.5-0.2-0.6c-0.2-0.1-0.8-0.3-1.5,0.3c-0.6,0.6-1.4,0.7-1.7,1.4c-0.3,0.8-0.2,0.5,0.1,0.8
		c0.3,0.3,1.7,1.7,2,2.4c0.3,0.7,0.4,1.3,0.4,2c0,0.8-1.6,2.2-2.3,2.7c-0.7,0.5-0.9,0.9-0.8,0.2c0.1-0.7-0.3-1.2-0.8-1.7
		c-0.5-0.6-2.1-1-2.4-1.1c-0.3-0.1,0.1-0.5-0.1-0.5c-0.2,0-0.7-0.1-0.6,0.6c0.1,0.7-0.5,0.5-0.6,1.2c-0.1,0.7-0.2,1.5,0.2,1.4
		c0.5-0.1,0.4,0.6,0.7,1.4c0.4,0.8,0.2,0.4,1.1,1.1c0.9,0.7,0.7,0.6,0.9,1.3c0.2,0.7,0.1,1.1,0.6,1.8c0.4,0.7,0.5,0.8-0.3,0.4
		c-0.7-0.4-1.3-0.8-1.6-1.3c-0.3-0.5-0.5-1.6-0.6-2.2c-0.2-0.6-1.4-1.3-1.8-1.7c-0.4-0.4-0.2-0.7,0-1.7c0.2-1-0.1-1.9-0.2-2.4
		c-0.1-0.6-0.5-2.2-0.8-2.8c-0.2-0.5-0.1-0.5-0.5,0c-0.3,0.5-0.6,0.8-0.9,0.8c-0.3,0-0.8-0.1-0.8-0.3c0-0.2,0.4-1,0.3-1.4
		c-0.1-0.3-0.4-1.3-0.9-1.7c-0.5-0.4-1-0.8-1.3-1.7c-0.3-0.8-0.4-0.6-1-0.2c-0.6,0.4-1.9,0.5-2.5,0.5c-0.6,0.1-0.1,0.4-0.3,0.7
		c-0.2,0.3-0.9,0.7-2.4,2.3c-1.5,1.6-1.7,1.6-2.1,1.8c-0.4,0.2-0.6,0.1-0.6,0.8c0,0.6,0.1,1,0,1.6c-0.1,0.6-0.2,0.8-0.4,1.2
		c-0.2,0.4-0.3,1-0.4,1.4c-0.1,0.3-0.4,0.7-0.9,1.1c-0.5,0.4-0.5,0.3-0.7-0.2c-0.2-0.5-1.4-2.5-2.3-4.4c-0.9-1.9-0.7-2.2-0.8-2.7
		c-0.1-0.5-0.1-3.8-0.1-4c0-0.1-0.5,0.4-0.6,0.6c-0.1,0.3-0.1,0.6-0.7,0.6c-0.5,0-0.6,0.1-1.1-0.4c-0.5-0.5-0.7-0.8-0.6-0.8
		c0.1,0,0.7-0.1,1-0.2c0.3-0.2,0.2-0.3,0.2-0.3s-0.4,0-0.8,0.1c-0.4,0-0.2-0.1-0.8-0.3c-0.6-0.2-0.7-0.2-0.8-0.5
		c-0.1-0.3-0.2-0.6-0.3-0.8c-0.1-0.2-0.1-0.2-0.2-0.4c-0.1-0.2-0.4,0-1,0.1c-0.6,0-0.5,0-1.2,0.3c-0.7,0.3-0.9,0.2-1.7,0.2
		c-0.8,0-1.4-0.4-1.8-0.5c-0.4-0.1-0.5-0.1-1.1-0.2c-0.6-0.1-0.5-0.4-0.6-0.7c-0.2-0.3-0.4-0.3-1.2-0.3c-0.8,0.1-0.8,0-1.3-0.1
		c-0.5-0.1-0.5-0.3-0.9-0.7c-0.4-0.4-0.3-0.1-0.5-0.3c-0.3-0.2-0.5-0.5-0.7-1c-0.2-0.5-0.2-0.7-0.4-0.9c-0.2-0.2-0.2-0.2-0.9-0.2
		c-0.7,0-0.4,0-0.5,0.1c-0.1,0-0.3,0.4-0.5,0.6c-0.2,0.2,0.2,0.6,0.5,0.9c0.3,0.3,0,0.3,0.5,0.8c0.5,0.5,0.3,0.5,0.6,1.2
		c0.3,0.7,0.5,0.9,0.6,1.1c0.1,0.2,0.1-0.1,0.2-0.3c0.1-0.2,0-0.9,0-0.9s0.1,0.3,0.3,0.8c0.1,0.5,0,0.5,0.1,0.8
		c0.1,0.3,0,0.3,0.6,0.3c0.6,0,0.9,0,1.5-0.1c0.6-0.1,0.9-0.7,1.2-0.9c0.3-0.2,0.3-0.7,0.5-0.7c0.2,0.1,0,0.7,0.2,1.1
		c0.2,0.4,0.2,0.3,0.7,0.4c0.4,0.2,0.5,0.3,1,0.4c0.4,0.2,0.1,0.2,0.4,0.6c0.2,0.4,0.2,0.2,0.5,0.3c0.2,0.2,0.1,0,0,0.6
		c-0.2,0.5-0.2,0.5-0.6,0.9c-0.4,0.4-0.4,0.3-0.4,0.3c-0.1,0-0.2-0.3-0.2-0.3s-0.2,0.5-0.3,1.1c0,0.6,0.2,0.4-0.5,0.7
		c-0.7,0.3-1.1,0.4-1.4,0.6c-0.3,0.2-0.3,0.5-0.4,0.7c-0.2,0.2-0.4,0-0.8,0.2c-0.5,0.2-0.3,0.1-0.7,0.4c-0.4,0.3,0,0.3-0.6,0.5
		c-0.5,0.2-1.4,0.6-1.9,0.7c-0.5,0-0.4,0.2-0.5,0.3c-0.1,0.2-0.1,0.3-0.7,0.4c-0.6,0.1-1.3,0.2-1.7,0.4c-0.4,0.2-0.9,0.6-1.3,0.5
		c-0.4-0.1-0.3-0.1-0.4-0.4c-0.1-0.3-0.2-0.6-0.3-1.2c-0.1-0.6-0.3-1.4-0.6-2c-0.3-0.5-0.3-0.6-0.7-1.2c-0.4-0.6-0.6-1.1-0.9-1.3
		c-0.3-0.2-0.5-0.2-0.6-0.4c-0.1-0.2-0.1-0.7-0.2-1.2c-0.2-0.5-0.3-1-0.5-1.2c-0.2-0.3-0.6-0.6-0.9-1.2c-0.3-0.6-0.3-0.6-0.8-1.5
		c-0.5-0.9-0.6-1-0.9-1.6c-0.3-0.6-0.1-0.5-0.2-0.8c-0.1-0.4-0.4,0.6-0.6,0.8c-0.2,0.2-0.3,0.1-0.5-0.4c-0.2-0.5-0.3-1-0.5-0.8
		c-0.1,0.2-0.3,0.4-0.1,1c0.2,0.6,0.3,0.4,0.5,1c0.3,0.5,0.9,1.9,1.2,2.4c0.3,0.6,0.2,0.3,0.4,1.1c0.3,0.8,0.4,0.9,0.8,1.3
		c0.3,0.3,0.3,0.2,0.4,0.7c0.2,0.6,0.1,1.2,0.1,1.6c0,0.3,0.2,0.5,0.6,0.9c0.4,0.3,0.2,0.2,0.4,0.6c0.2,0.4,0.4,0.9,0.5,1.2
		c0.1,0.4,0.2,0.6,0.6,0.8c0.3,0.2,0.4,0.2,0.7,0.3c0.3,0.1,0.2,0.2,0.4,0.5c0.2,0.3,0.7,0.5,0.9,0.9c0.3,0.4,0.1,0.3,0.1,0.8
		c0,0.4-0.2,0.2,0,0.5c0.2,0.2,0.5,0.4,1.1,0.8c0.6,0.4,0.1,0.1,0.6,0.1c0.5,0,0.6-0.1,1.1-0.3c0.5-0.1,1.2-0.3,1.9-0.5
		c0.7-0.2,1.3-0.3,1.7-0.4c0.3-0.1,0.3,0.3,0.1,0.8c-0.3,0.6-0.4,1.1-0.6,1.5c-0.2,0.5-0.3,0.5-0.5,0.9c-0.2,0.4-1.3,1.9-1.5,2.4
		c-0.2,0.5-0.5,0.9-0.8,1.3c-0.3,0.4-1.4,1.1-1.9,1.5c-0.5,0.4-0.4,0.4-0.7,0.9c-0.4,0.5-1.5,1.7-1.8,2.2c-0.3,0.5-0.5,0.6-0.7,1.1
		c-0.2,0.4-0.8,1.1-0.9,1.4c0,0.3-0.4,0.4-0.1,0.6c0.3,0.3,0.4,0.3,0.5,0.7c0.1,0.4-0.3,0.8,0,1.4c0.3,0.7,0.1,0.2,0.5,0.7
		c0.4,0.5,0.4,0.9,0.4,1.6c0,0.8,0.1,1.5,0,2c-0.1,0.5-0.3,0.8-0.5,1.3c-0.2,0.4-1.1,0.8-1.7,1c-0.5,0.2-0.5,0.1-0.8,0.4
		c-0.3,0.3-1,0.9-1.2,1.4c-0.2,0.5-0.4,0.4-0.3,0.7c0.1,0.3,0.3,0.7,0.6,1.2c0.3,0.6,0.1,0.5,0,1c-0.1,0.5-0.1,0.4-0.1,1
		c-0.1,0.6-0.7,0.6-1.5,0.9c-0.8,0.3-0.5,0.2-0.6,0.6c-0.1,0.4,0,1.2-0.1,1.7c0,0.5-0.3,0.3-0.7,0.9c-0.4,0.6-0.6,0.9-1,1.6
		c-0.5,0.7-0.4,0.6-1,1.1c-0.6,0.5-1,0.6-1.3,1.1c-0.3,0.5-0.5,0.2-1.8,0.6c-1.2,0.4-0.3,0.2-1.5,0.3c-1.2,0.1-1.6,0.2-2.2,0.3
		c-0.6,0.1-0.5,0-0.9-0.4c-0.4-0.4-0.4-0.4-0.6-0.7c-0.2-0.3,0-0.4-0.1-1c-0.1-0.6-0.1-0.6-0.3-1c-0.2-0.4-0.2-0.4-0.5-1.1
		c-0.3-0.6-0.4-0.8-0.6-1.2c-0.3-0.4-0.4-0.3-0.6-0.6c-0.3-0.3-0.3-0.5-0.3-0.9c-0.1-0.4-0.1-1.3-0.3-2.2c-0.1-0.9,0-0.4-0.2-0.8
		c-0.1-0.4-0.3-0.9-0.6-1.4c-0.3-0.5-0.2-0.4-0.5-1c-0.4-0.7-0.3-0.6-0.6-1.1c-0.2-0.6-0.3-0.3-0.3-0.5c0-0.2,0.1-0.6,0.1-1
		c0-0.4,0.1-0.8,0.2-1.4c0.1-0.6-0.1-0.6,0.1-1c0.3-0.4,0.5-0.8,0.7-1.2c0.2-0.5,0.1-0.5,0.1-1.1c0-0.6-0.1-0.5-0.2-1
		c-0.2-0.5-0.2-1.1-0.5-1.8c-0.2-0.8-0.2-0.8-0.2-1.1c0-0.3-0.2-1-0.3-1.4c-0.1-0.4-0.2-0.2-0.5-0.5c-0.3-0.3-0.1-0.2-0.4-0.4
		c-0.3-0.3-0.2-0.4-0.5-0.7c-0.3-0.3-0.3-0.3-0.5-0.7c-0.2-0.4-0.1-0.1-0.1-0.8c0-0.6,0.2-1.8,0.3-2.5c0.1-0.7,0.1-0.6-0.1-0.9
		c-0.3-0.3-0.4-0.7-0.6-0.8c-0.2-0.1-0.7,0.1-1.4,0.1c-0.7,0-0.7-0.2-1-0.5c-0.3-0.4-0.7-0.8-0.8-1c-0.1-0.1-0.4-0.1-1.6,0
		c-1.2,0.1-0.5,0.1-1.3,0.2c-0.8,0.1-1.1,0.5-1.7,0.8c-0.6,0.2-0.8,0.2-1.9-0.1c-1.1-0.2-1.6,0.2-2.2,0.5c-0.5,0.2-0.8,0.1-1.2-0.2
		c-0.4-0.3-0.6-0.5-1.3-0.8c-0.6-0.3-0.5-0.5-1.1-0.8c-0.6-0.3-0.4-0.3-0.9-0.8c-0.5-0.5-0.5-1-0.9-1.5c-0.3-0.5-0.6-1.2-1.1-1.7
		c-0.5-0.5-0.9-1.6-1.2-1.9s-0.4-0.3-0.4-0.5c0-0.2,0.5-1,0.6-1.5c0.2-0.5,0.2-0.4,0.3-0.7c0.1-0.3-0.1-1.1-0.3-1.6
		c-0.2-0.5-0.4-1.4-0.5-1.9c-0.1-0.4,0.1-0.5,0.2-0.7c0.2-0.3,0.6-0.8,1-1.6c0.4-0.8,0.7-1.2,0.9-1.5c0.2-0.4,0.7-1.5,1.1-1.8
		c0.3-0.3,1.2-0.9,1.5-1.1c0.4-0.2,0.7-0.3,0.7-0.5c0.1-0.2,0.2-1.5,0.3-2.1c0.1-0.6,0-0.9,0.4-1.1c0.4-0.2,1.1-0.6,1.4-0.8
		c0.3-0.2,0.4-0.5,0.6-0.9c0.2-0.4,0.3-1,0.5-1.1c0.3-0.2,0.2,0.1,0.5,0.3c0.3,0.2,0.4,0.2,0.6,0.3c0.2,0,0.3-0.1,0.7-0.1
		c0.4,0,0.5,0,0.7,0.2c0.2,0.1,0.1,0.1,0.8-0.3c0.7-0.4,1.3-0.7,2.2-1c0.9-0.3,1.5-0.5,2-0.6c0.4,0,0.2,0,0.7,0.2
		c0.5,0.2,0.5,0.3,0.6,0.1c0.1-0.1,0.4-0.5,0.6-0.5c0.2,0,0.4,0.1,0.9,0.2s0.7,0,0.9-0.1c0.2-0.1,0.5-0.3,0.5-0.3
		c0.1,0,0.5,0.2,0.8,0.3c0.4,0.1,0.4,0.2,0.3,0.2c-0.1,0.1-0.2,0.2-0.3,0.6c-0.2,0.4-0.1,0.2,0.1,0.6c0.2,0.4,0.3,0.4,0.2,0.7
		c-0.1,0.3-0.4,0.6-0.7,0.9c-0.2,0.3-0.2,0.3,0.4,0.7c0.6,0.3,0.5,0.3,1.1,0.6c0.7,0.3,0.7,0.2,1.5,0.4c0.8,0.2,0.7,0.3,1,0.6
		c0.3,0.3,0.3,0.6,0.8,0.8c0.5,0.2,1,0.2,1.3,0.3c0.3,0.2,0.5,0.4,0.9,0.5c0.4,0.1,0.4,0.1,0.5-0.2c0.2-0.3,0.3-0.5,0.3-0.6
		c-0.1-0.1-0.3-0.4-0.2-0.5c0-0.1,0.4-0.7,0.5-0.8c0.1-0.2,0.3-0.2,0.9-0.2c0.6,0,1-0.1,1.1,0.2c0.1,0.3,0.1,0.2,0.5,0.4
		c0.5,0.2,0.5,0.2,0.9,0.3c0.4,0.1,0.2,0.4,0.4,0.3c0.2,0,0.5,0,0.9,0.1c0.4,0.1,1,0.4,1.7,0.4c0.7,0,1-0.2,1.1-0.2
		c0.1,0,0.6-0.6,0.9-0.2c0.3,0.4,0.7,0.4,1.4,0.4c0.7,0,0.7-0.2,0.9-0.3c0.2-0.2,0.6-0.9,0.7-1.4c0.1-0.5,0.5-1.5,0.6-2
		c0.1-0.5,0-0.8,0-1.1c0-0.3,0-0.5,0.1-0.8c0.1-0.3-0.3-0.1-0.5-0.1c-0.2,0.1-0.2-0.1-0.4-0.1c-0.2,0-0.3-0.1-0.5,0.2
		c-0.1,0.3-0.1,0.5-0.7,0.4c-0.7,0-0.6-0.1-0.8-0.3c-0.2-0.2-0.6-0.3-0.9-0.4c-0.3-0.1-0.3-0.1-0.4,0.1c0,0.2,0,0.3-0.3,0.4
		c-0.2,0.1-0.7,0-1.1-0.2c-0.4-0.2-0.5-0.3-1-0.7c-0.4-0.4-0.4-0.4-0.5-1c-0.2-0.6-0.2-1.2-0.1-1.4c0.1-0.2,0.2-0.2-0.1-0.1
		c-0.3,0.1-0.5,0.2-0.3-0.3c0.2-0.5,0.4-0.5,0.6-0.6c0.2-0.1,0.6-0.1,1-0.1c0.4,0,0.7-0.2,0.9-0.3c0.1-0.1,0.5-0.2,0.3-0.2
		c-0.2,0-0.6-0.1-0.5-0.2c0.1-0.1,0.1-0.1,0.4-0.2c0.3,0,0.6,0,1-0.1c0.3,0,0.5,0,0.6-0.2c0.1-0.2,0.3-0.5,0.5-0.7
		c0.3-0.2,0.5-0.1,1.2-0.1c0.7,0,0.6,0.1,0.8,0.3c0.2,0.2,0.4,0.1,0.7,0.1c0.3,0.1,0.1,0.2,0.3,0.3c0.2,0.1,0.6,0.2,1.1,0.3
		c0.5,0.2,0.2,0.1,0.8,0.1c0.6,0,0.6,0,1.1-0.1c0.5-0.1,0.7-0.3,1-0.5c0.3-0.2,0.1-0.8,0-1.2c-0.1-0.4-0.7-0.7-0.9-0.9
		c-0.2-0.2-0.8-0.8-1.1-1c-0.3-0.2-0.6-0.3-0.9-0.5c-0.3-0.2-0.9-0.5-0.9-0.7c-0.1-0.2,0.1-0.2,0.6-0.3c0.5-0.1,0.3-0.2,0.4-0.4
		c0.1-0.2,0.1-0.2,0.5-0.4c0.4-0.1-0.4-0.4-0.5-0.6c-0.1-0.2,0.3-0.1,0.6-0.2c0.4-0.1,0.4-0.3,0.5-0.4c0.1-0.2,0-0.2-0.4-0.2
		c-0.4,0-1,0.2-1.8,0.4c-0.7,0.2-0.4,0.2-0.9,0.6c-0.5,0.4-0.5,0.2-0.4,0.4c0.1,0.2,0.1,0.4,0.5,0.6c0.5,0.2,0.3,0.2,0.4,0.3
		c0.1,0,0.4,0.1,0.3,0.1c-0.1,0-0.3,0.3-0.5,0.3s-0.3,0.2-0.7,0.4c-0.4,0.2-0.5,0.2-0.8,0.3c-0.3,0-0.4,0-0.4-0.5
		c0-0.4-0.1-0.1-0.4-0.2c-0.3-0.1-0.4-0.2-0.4-0.2s0.3-0.1,0.5-0.3c0.3-0.2,0.4-0.3,0.5-0.6c0.1-0.3-0.3-0.2-0.6-0.2
		c-0.3,0-0.2-0.1-0.5-0.1c-0.3,0-0.4-0.3-0.4-0.3s0.1,0.1,0.4,0c0.3,0,0.2-0.1,0.3-0.2c0.1-0.1,0.2-0.1,0.1-0.1c-0.1,0-0.4,0-0.6,0
		c-0.2,0-0.3,0-0.7,0c-0.3,0-0.2,0.2-0.4,0.3c-0.2,0.1-0.2,0.2-0.3,0.4c-0.1,0.2-0.2,0.2-0.2,0.3c-0.1,0.1-0.1,0.5-0.1,0.7
		c0,0.2-0.1,0.3-0.2,0.5c-0.1,0.2-0.1,0.1-0.4,0.2c-0.2,0.1-0.1,0.2-0.1,0.4c0,0.2-0.1,0.3-0.1,0.6c0,0.3-0.1,0.3-0.3,0.5
		c-0.2,0.2-0.3,0.2-0.3,0.4c0,0.2-0.1,0.3,0,0.7c0.1,0.4,0.2,0.3,0.5,0.8c0.3,0.4,0.5,0.3,0.4,0.5c-0.1,0.2-0.1,0.1-0.5,0.1
		c-0.4,0-0.5,0-0.8,0.3c-0.3,0.3-0.4,0.4-0.5,0.5c-0.2,0.1-0.1-0.2-0.2-0.4c-0.1-0.1-0.7-0.2-1.2-0.3c-0.5-0.1-0.6-0.2-0.7-0.2
		c-0.1,0-0.3,0-0.8,0.2c-0.5,0.3-0.4,0.4-0.3,0.8c0,0.4,0.4,0.4,0.3,1.3c-0.1,0.8,0.4,0.4,0.6,1c0.2,0.5,0,0.5-0.1,0.5
		s-0.3,0.5-0.4,0.9c-0.1,0.4,0,0.5-0.1,0.4c-0.1,0-0.3,0.1-0.5-0.3c-0.2-0.3-0.4,0-0.5-0.2c0-0.2-0.3-0.5-0.2-1
		c0.1-0.5,0.3-0.5-0.1-0.7c-0.4-0.2-0.3-0.3-0.5-0.8c-0.2-0.5-0.2-0.6-0.6-1c-0.4-0.4-0.3-0.3-0.2-0.8c0.1-0.4,0.2-1,0-1.3
		c-0.2-0.3-1.1-1.2-1.9-1.6c-0.8-0.4-0.9-0.1-1.2-0.7c-0.3-0.6-0.5-1.3-1-1.7c-0.6-0.4-0.3-0.4-0.8-0.2c-0.5,0.2-0.5,0.3-0.5,0.4
		c0,0.2,0.2,0.4,0.1,0.8c-0.1,0.4-0.2,0.3,0.4,0.6c0.6,0.3,0.3,0.3,0.6,0.9c0.3,0.6,0.3,0.7,0.5,1c0.2,0.2,0.3,0.5,0.9,0.6
		c0.6,0.1,0.5,0,0.6,0.1c0.1,0.1-0.4,0.2-0.3,0.2c0.1,0.1,0.2,0.2,0.7,0.5c0.5,0.3,0.9,0.6,1.1,0.8c0.1,0.2,0.5,1.1-0.1,0.5
		c-0.6-0.6-0.6-0.3-0.8,0.1c-0.2,0.4,0.2,0.8,0.1,1.1c0,0.3-0.3,0.2-0.5,0.5c-0.2,0.3-0.3,0.6-0.5,0.7c-0.2,0.2-0.2-0.2-0.3-0.2
		c-0.1,0-0.2,0.2-0.3,0.5c-0.2,0.3,0,0.4,0.1,0.8c0.1,0.4,0.2,0.4-0.3,0.4c-0.4,0-0.3-0.4-0.7-0.7c-0.4-0.3-0.6-0.2-1-0.4
		c-0.3-0.2,0.1-0.3,1-0.4c0.8-0.1,0.9-0.2,1.2-0.4c0.3-0.2,0.2-0.2,0.4-0.6c0.3-0.4,0-0.5-0.2-1c-0.2-0.5-0.5-0.7-0.7-0.8
		c-0.1-0.1-0.4-0.4-0.6-0.6c-0.2-0.3-0.5-0.3-0.9-0.4c-0.4-0.1-0.3-0.5-0.6-0.6c-0.2-0.1-0.5-0.4-1-0.9c-0.5-0.5-0.3-0.9-0.6-1.3
		c-0.2-0.4-0.5-0.8-1-0.8s-0.9,0.4-1.5,0.9c-0.5,0.5-0.4,0.8-1,0.4c-0.6-0.4-0.8-0.4-1.3,0c-0.4,0.4-0.5,0.7-0.5,1.5
		c0,0.7-0.5,0.4-1,0.6c-0.4,0.2-0.8,0.7-1.4,1.9c-0.6,1.2,0,0.6-0.1,1.1c-0.1,0.4,0,0.7-0.6,1.3c-0.6,0.5-0.3-0.1-0.7,0.4
		c-0.4,0.4-0.8,0.8-1.7,0.7c-0.8-0.1-0.6,0.2-1.1,0.4c-0.5,0.1-0.8,0.3-0.7-0.3c0.1-0.6,0-0.5-1-0.5c-1,0-1.4,0.3-1.3,0.2
		c0.1-0.1,0.1-0.4,0.2-1c0.1-0.6,0.3-0.8,0.1-0.8c-0.2,0-0.5,0.1-0.2-1c0.2-1,0.3-1.2,0.2-1.8c-0.1-0.6,0-1.4-0.1-1.8
		c-0.1-0.4,0.3-0.7,0.1-0.9c-0.2-0.2-0.4-0.4-0.2-0.4c0.1,0,0.7,0,1.4,0.1c0.7,0.1,1.4-0.1,1.9-0.1c0.4,0,1.3,0.2,2.2,0.4
		c0.9,0.1,0.9-0.1,0.8-1.4c-0.1-1.3,0.1-1.9-0.2-2.2c-0.3-0.3-0.6-0.2-0.8-0.6c-0.3-0.4-0.1-0.9-0.7-1.1c-0.6-0.2-1.3,0-1-0.2
		c0.3-0.1,0.5-0.2,0.1-0.4c-0.4-0.3-0.4-0.6-0.2-0.6c0.3,0,1,0,1,0s0.1,0.4,0.5,0.2c0.4-0.2,0.9-0.3,0.8-0.6
		c-0.1-0.3-0.3-0.6-0.2-0.6c0.1,0,0.2,0.4,1.1,0.4c0.8,0,0.8-0.1,0.7-0.5c-0.1-0.4,0.6-0.3,1-0.6c0.4-0.3-0.2-0.6-0.1-0.9
		c0.1-0.3,0.6-0.4,1.4-0.5c0.9-0.1,0.7-0.2,0.6-0.3c-0.1-0.1,0-0.5,0.1-1.1c0.1-0.6-0.1-0.7,0.4-1c0.4-0.3,0.3-0.2,1.2-0.2
		c0.9-0.1,0.4-0.3,0.5-0.3c0.2,0,1.2-0.3,1.4-0.4c0.2-0.1,0.2-0.1,0-0.5c-0.2-0.4-0.4-0.6-0.6-2.4c-0.2-1.8-0.2-1.8,1-2.2
		c1.1-0.3,0.9-0.2,0.8,0.8c-0.1,1-0.6,1-0.7,1.8c-0.1,0.7,0,1.2,0.4,2c0.5,0.8,0.4,0.4,1.4,0.4s0.8,0.2,1.4,0.5
		c0.7,0.2,0.4-0.4,1.1-0.6c0.6-0.2,0.5,0.1,2-0.1c0.6-0.1,0.8-0.1,0.8-0.1c0,0-0.2,0,0-0.1c0.4-0.2,0.4-0.6,1-0.6
		c0.5-0.1,0.9,0.1,0.8-0.6c0-0.8-0.3-0.7-0.2-1.3c0.1-0.6,0.1-0.3,0.2-0.8c0-0.5-0.1-0.6,0.6-0.7c0.6-0.2,0.2,0.6,1,0.7
		c0.8,0.2,0.7,0.3,0.8-0.3s0.6-1.4,0.2-1.3c-0.4,0-0.5,0-0.8-0.6c-0.4-0.6-0.6-0.7-0.4-0.7c0.2,0,1.1-0.2,2.2-0.2
		c1.2,0,1.5,0.1,1.6,0c0.1-0.1-0.2-0.2,0.2-0.5c0.4-0.2,1.7,0.1,1.5-0.1c-0.2-0.2-1.4-0.5-2.1-0.4c-0.8,0.1-2.7,0.4-3,0.3
		c-0.3,0-0.8-0.2-1-0.4c-0.1-0.1-0.6-0.2-0.6-0.9c0-0.7,0.2-1-0.2-1.6c-0.4-0.7,0.7-1.2,1.5-1.9c0.8-0.7,0.6-1.3,1-1.3
		c0.5,0,0.6-0.3,0.4-0.5c-0.2-0.2-1-1-1.4-1.1c-0.4-0.1-1-0.5-1.6,0.5c-0.6,1.1,0,1.2,0.2,1.7c0.1,0.6-0.9,1-1.6,1.5
		c-0.7,0.5-1,0.4-1.2,1.7c-0.2,1.3-0.4,1.4,0.4,1.8c0.8,0.5,1,0.7,0.6,1.1c-0.4,0.4-1.2,0.4-1.7,1.3c-0.5,0.9-0.3,1.4-0.5,1.8
		c-0.2,0.4-0.8,0.6-1,1c-0.2,0.4-0.2,1.2-0.9,1.1c-0.8-0.1-0.3-1.1-0.7-1.7c-0.3-0.5-0.6-1-1-1.6c-0.4-0.6-0.1-1.3-0.5-1.6
		c-0.4-0.3-0.5-1-0.5-1s0,0-0.1,0.3c-0.1,0.3-0.1,0.5-0.8,1.4c-0.8,0.9-1.9,1-2.4,0.8c-0.6-0.2-0.5-0.8-0.5-1.4c0-0.7-0.1-1.6,0-2.7
		c0.1-1.1,0.4-1,1.6-1.7c1.2-0.7,1.2-0.7,1.5-1.1c0.3-0.5,1.1-1.1,1.6-1.5c0.5-0.4,1.3-2,1.8-3.1c0.4-1.1,1.3-1.8,2.1-3
		c0.8-1.2,2.2-2.3,4-3c1.8-0.8,1.5-0.8,1.9-1.4c0.4-0.6,0.6-0.2,1.3-0.4c0.7-0.1,0.6,0-0.1,0.7c-0.7,0.7-1,1.4-0.4,0.9
		c0.6-0.6,1.1-1.2,2-1.2c0.9,0,0.6,0,1.5,0.4c0.9,0.4,1.1,0.5,0.6,0.8c-0.5,0.3-1.4,0.2-1.4,0.2s0.3,0.7,1.1,0.8
		c0.8,0.1,1.3-0.7,1.9-0.4c0.6,0.3,0.7,0.5,0,0.4c-0.8-0.1-1,0.4,0,0.7c0.9,0.3,1,0.4,2.2,0.5c1.2,0.2,1.8,1.1,2.7,1.4
		c0.9,0.4,2,0.1,1.7,0.9c-0.3,0.8,0.2,1.7-1.4,2.1c-1.6,0.4-1.6-0.1-2.9-0.5c-1.4-0.4-2.3-0.8-2.3-0.8s0.4,0.5,1,1.1
		c0.6,0.6,0.7,1.1,0.6,2.2c-0.1,1.1-0.4,1.3,0.7,1.9c1.1,0.5,0.9,0.4,1.2,0.3c0.3-0.1,0.9-0.2,0.8-0.4c-0.1-0.2-0.2-0.5-0.6-0.6
		c-0.4-0.2-0.4-0.6,0-0.7c0.4-0.2,0.7,0.2,1.5,0.1c0.8,0,0-0.3,0.4-0.7c0.4-0.4,0.4-1.1,1.3-1.4c0.9-0.4,1.9,0.2,2.1-0.2
		c0.2-0.4,0.5-0.8,0-1.4c-0.5-0.6-0.9-0.8-0.6-1.1c0.3-0.3,0.9-1.1,1.2-0.6c0.3,0.4,1,0.9,0.1,0.8c-0.9-0.1-0.3,1.4,0.6,1.3
		c0.8-0.1,0.8-0.4,1.5-0.7c0.7-0.3,2-1.4,3-1.8c1-0.3,1.2-0.2,1.5-0.1c0.4,0.2,0.4,0.5,1.4,0.3c1-0.2,1.4-0.5,2.3-0.6
		c1-0.2-0.1,0.4,0.4,0.5c0.4,0.1,0.5,0.3,0.8,0s1.4-0.6,0.9-1c-0.5-0.4-0.8-0.6-0.8-0.6s0.4-0.8,1.3-0.7c0.9,0.1,2.4,0.9,3.3,1.6
		c0.9,0.6,2,1.9,2,1.9s0.4-0.7,0.1-1.8c-0.3-1.1-1.2-0.9-1.2-1.9c0-1.1-0.8-0.8-0.5-1.6c0.3-0.8,1-1.1,1.2-2c0.2-1,0.4-1.8,1.1-1.8
		c0.7,0,2.2,0.2,2.2,0.2s0,0.9-0.6,2.2c-0.6,1.3,0.3,1.5,0.2,3.1c-0.1,1.6-0.2,1.8,0.2,2.2c0.4,0.4,1.1,0.8,0.8,1.5
		c-0.3,0.7-0.4,1.1-1.4,1.5c-1,0.4-2.3,0.2-1.8,0.5c0.5,0.3,1.1,0.6,1.7,0.7c0.7,0.1,0.3,0,0.9-0.5c0.5-0.4,1.7-1.3,1.7-1.7
		c0-0.4-0.7-1.1-0.2-1.4c0.4-0.3,0.6-0.8,1.3-0.4c0.7,0.4,1.4,1.9,1.4,1.8c0-0.1-0.1-1.4-1-2.3c-0.8-0.8-2.2,0-2.2-0.8
		c0-0.7,0.4-1.7,0.3-2.5c-0.1-0.8-0.4-1.6,0.1-2.3c0.5-0.7,0.5-1.2,0.5-1.2s0.2,0.6,0,1.4c-0.2,0.8,0.1,1.3,0.5,1.3
		c0.4,0,2.1,0,1.2-0.2c-0.9-0.3-1.2-0.5-0.3-1c0.9-0.5,0.9-0.2,2.2,0.1c1.3,0.3,1.6,0.5,2.1,0.5c0.4,0,0.4-0.1,0.2-0.5
		c-0.2-0.4-0.4-0.7-0.8-0.9c-0.4-0.3-0.7,0.1-0.8-0.4c-0.1-0.4-0.4-1.4-0.5-1.8c-0.1-0.4,0.3-0.1,1-0.1c0.7,0,2.6-0.1,4.1-0.1
		c1.5,0,0-1.6-0.1-2.7c-0.1-1.1,2.8-1.1,4.2-1.3c1.4-0.2,3-0.1,5.6-0.8c2.6-0.6,0.9-0.5,1.3-1.3c0.4-0.7,1-0.9,1.8-0.9
		c0.8,0,1.5,0.1,1.2,0.2c-0.3,0.1-1.2,0.5,0.2,0.8c1.4,0.3,1,0.3,0.3,0.5c-0.7,0.2-0.1,0.7,1.3,0.7c1.4,0,0.6-0.1,0.3-0.6
		c-0.2-0.5,0.2-0.3,1.3-0.1c1.1,0.2,1.6,0.4,2.2,1s0.7,0.4,1,1.2c0.2,0.8,0,0.7-1,1.4c-1,0.7-1.5,0.7-2.9,1.6
		c-1.4,0.9-1,1.3-1.8,1.9c-0.8,0.6-0.6,0.4,1,0c1.6-0.4,2.5-0.7,3.3-0.6c0.8,0.1,1.2,0.4,1.8,0.4c0.6,0,0,0.1,1.9,0.1
		c2,0,1.7,0,1,0.6c-0.7,0.6,0.1,0.7,1,0.7c0.9,0,1.9,0,2.7-0.1c0.8-0.1,0.1-0.7,1.1-0.8c1,0,1.3-0.1,2.3-0.1s0.7,0.4,1.1,0.8
		c0.4,0.4,0.8,0.6,0.5,1.4c-0.3,0.7-0.5,0.8-0.3,1.8c0.2,1,0.7,1.2,1.3,1.3c0.6,0.2,0.6-0.9,1.2-1.3c0.6-0.4,0.7,0.7,1.4,0.6
		c0.7-0.2,1.5-0.1,2.1,0.1c0.6,0.2,1.1,0.3,2,0.1c0.8-0.2,0.6-0.5,0.3-1c-0.3-0.5-0.3-0.5,0.2-1c0.5-0.5,0.9-0.3,2.6,0.2
		c1.7,0.5,1.2,0.5,2.2,0.7c1,0.3,0.7,0.2,2.2,0.9c1.5,0.7,1.2,1.5,1.9,1.9c0.7,0.4,0.7,0,2.1-0.1c1.4-0.1,1.4,0.2,2.9,0.6
		c1.5,0.4,1.1,0.9,1.1,1.3c0,0.4-0.4,0.8,0.5,1c0.9,0.2,1.3,0.4,2.1,0.2c0.8-0.2,0.1,0.2,1.9,0.2c1.8,0,1.2-0.2,1.7,0.2
		c0.5,0.4,0.7,1.1,1.5,1c0.9-0.1,0.8-0.1,0.4-0.8c-0.4-0.8-0.6-0.9-0.1-0.9c0.5,0,1.6,0.2,3.5,0.6c1.9,0.3,2,0.7,3.6,1.7
		c1.6,1,2,1.1,3.2,2c0.4,0.3,0.5,0.4,0.5,0.5c0,0,0.2,0,0.6,0.2c1.2,0.6,1,0.4,2.1,0.9c1.1,0.5,2,1.2,2,1.2S282.6,113.7,281.8,113.8
		z M178.1,134.8c0,0-0.1,0.2,0.5-0.3c0.6-0.5-0.3,0-0.6-0.1c-0.4-0.1-0.5-0.3-0.4-0.7c0.1-0.5,0-0.5-0.4-1.1c0,0-0.2-0.1-0.6,0.1
		c-0.4,0.2-0.7-0.2-1.2-0.1c-0.5,0.2-1.1,0.1-1.4,0.9c-0.3,0.8-0.7,0.3-0.8,0.9c-0.1,0.6-1.1,1-1.1,1s0.4,0.4,0.7,0.7
		c0.3,0.4,0.1,0.1,0.4,1.3c0.3,1.2,0.5,1.1,0.9,1.2c0.4,0.2,1,0.6,1,0.6s-0.4-0.2-0.4,0.4c0,0.6-0.6,1.1-0.5,2
		c0.1,0.9-0.8,1.8-0.1,1.8c0.7,0.1,0.5,0.4,1.3,0.6c0.8,0.2,1.2,0.4,2.4,0.4c1.1,0,0.5-0.4,0.4-1.1c-0.2-0.6-0.2-1.1-0.3-1.8
		c0-0.7-0.3-0.5-0.5-1c-0.2-0.4,0.1-0.7,0.6-0.7c0.5,0,0.6,0,0.3-0.5c-0.3-0.5-0.1-0.7-0.5-0.9c-0.4-0.2-0.5,0.7-0.5,0.7
		s-0.2-0.2-0.1-1.1c0.1-0.9,0.2-0.5-0.1-0.6c-0.3-0.2-0.4,0-0.8-0.5s0-0.5-0.5-1.2c-0.4-0.7-0.2-0.3,0.3-0.3c0.5,0,0.2-0.1,0-0.3
		c-0.2-0.2-0.4-0.6,0.2-0.5c0.6,0,1.4,0.2,1.7,0.2C178.2,134.8,178.1,134.8,178.1,134.8z M95.3,103c-0.2,0.4,0.3,0.8,0.7,0.7
		c0.4-0.1,0.5,0,0.8-0.2c0.2-0.2,0.2-0.4,0-0.7c-0.3-0.3-0.2-0.4-0.2-0.4C96,102,95.5,102.6,95.3,103z M205.1,80.2
		c-0.6,0-1.3,0-0.7,0.2c0.6,0.2,0.3,1.1,1.4,0.6s0.8-0.6,1.6-0.9c0.7-0.3,0.3-0.2-0.6-0.4C206.2,79.6,205.7,80.1,205.1,80.2z"/>
	<g>
		<rect x="4.5" y="255.1" width="6.6" height="9.4"/>
		<rect x="12.5" y="236.8" width="6.6" height="27.6"/>
		<rect x="20.4" y="232.4" width="6.6" height="32"/>
		<rect x="28.4" y="243.3" width="6.6" height="21.1"/>
		<rect x="36.4" y="234.4" width="6.6" height="30.1"/>
		<rect x="44.4" y="226.7" width="6.6" height="37.7"/>
		<rect x="52.3" y="235.7" width="6.6" height="28.8"/>
		<rect x="60.3" y="218.6" width="6.6" height="45.9"/>
		<rect x="68.3" y="226.7" width="6.6" height="37.7"/>
		<rect x="76.3" y="234.4" width="6.6" height="30.1"/>
		<rect x="84.3" y="226.2" width="6.6" height="38.2"/>
		<rect x="92.2" y="218.6" width="6.6" height="45.9"/>
		<rect x="100.2" y="223.4" class="st1" width="6.6" height="41"/>
		<rect x="108.2" y="215.3" width="6.6" height="49.2"/>
		<rect x="116.2" y="198.7" width="6.6" height="65.7"/>
		<rect x="124.2" y="206.9" width="6.6" height="57.6"/>
		<rect x="132.1" y="191.6" width="6.6" height="72.9"/>
		<rect x="140.1" y="198.7" width="6.6" height="65.7"/>
		<rect x="148.1" y="191.6" width="6.6" height="72.9"/>
		<rect x="156.1" y="195.7" width="6.6" height="68.8"/>
		<rect x="164.1" y="188" width="6.6" height="76.4"/>
		<rect x="172" y="179.3" width="6.6" height="85.1"/>
		<rect x="180" y="182.4" width="6.6" height="82"/>
		<rect x="188" y="166" class="st2" width="6.6" height="98.4"/>
		<rect x="196" y="175.5" width="6.6" height="89"/>
		<rect x="203.9" y="170.6" width="6.6" height="93.8"/>
		<rect x="211.9" y="164" width="6.6" height="100.5"/>
		<rect x="219.9" y="152.4" width="6.6" height="112.1"/>
		<rect x="227.9" y="168.5" width="6.6" height="96"/>
		<rect x="235.9" y="156.7" width="6.6" height="107.8"/>
		<rect x="243.8" y="151.5" width="6.6" height="112.9"/>
		<rect x="251.8" y="144.2" width="6.6" height="120.3"/>
		<rect x="259.8" y="149.5" width="6.6" height="114.9"/>
		<rect x="267.8" y="136.8" class="st3" width="6.6" height="127.7"/>
		<rect x="275.8" y="147.9" width="6.6" height="116.6"/>
	</g>
	<path class="st4" d="M92.7,184.8c3.3-4.2,5.3-9.6,5.3-15.3V168c0-13.3-10.4-24.2-23.6-25v-9.5H57.7v9.4h-6.9v-9.4H34.1v9.4h-3.9
		h-8.3v16.7h8.3v18.1v16.7v20.1h-8.3v16.7h8.3h3.9v7.7h16.7v-7.7h6.9v7.7h16.7v-7.7H75c14.4,0,26.1-11.7,26.1-26.1v-1.5
		C101.1,196.3,97.9,189.5,92.7,184.8z M46.9,159.7h3.6h22.4c4.6,0,8.4,3.8,8.4,8.4v1.4c0,4.6-3.8,8.4-8.4,8.4h-26V159.7z
		 M84.4,205.3c0,5.1-4.2,9.3-9.3,9.3H50.5h-3.6v-20.1h26H75c5.1,0,9.3,4.2,9.3,9.3V205.3z"/>
	<polygon class="st5" points="264,94.7 255.7,116.3 250.9,110.4 203,148.9 191.1,139.4 124.6,193.7 112,180.1 45,228.7 25.5,214.7 
		0,233.1 0,223.3 25.5,204.8 45,218.8 113,169.4 125.4,182.8 191,129.1 203,138.6 245.9,104.2 241.2,98.3 	"/>
</g>
</svg>
